<?xml version="1.0" encoding="utf-8"?>
<!-- Generator: Adobe Illustrator 24.1.1, SVG Export Plug-In . SVG Version: 6.00 Build 0)  -->
<svg version="1.1" id="Capa_1" xmlns="http://www.w3.org/2000/svg" xmlns:xlink="http://www.w3.org/1999/xlink" x="0px" y="0px"
	 viewBox="0 0 200 200" style="enable-background:new 0 0 200 200;" xml:space="preserve">
<style type="text/css">
	.st0{fill:#FF80CC;}
	.st1{fill:#DD6BB4;}
	.st2{fill:#3ECAED;}
	.st3{fill:#2C96A8;}
	.st4{fill:#FFEF5A;}
	.st5{fill:#FFFFFF;}
	.st6{fill:#FFF171;}
	.st7{fill:#FFC0EC;}
	.st8{fill:none;stroke:#000000;stroke-width:1.687;stroke-miterlimit:10;}
</style>
<ellipse class="st2" cx="129.19" cy="83.07" rx="9.42" ry="13.66"/>
<path class="st6" d="M75.87,65.76c-1.81,5.54-15.3,45.23,28.91,57.46c19.78,5.47,32.25-7.02,31.97-22.57
	c-0.22-12.08-6.84-13.95-7.87-35.91C128.32,52.59,85.87,35.2,75.87,65.76z"/>
<circle class="st0" cx="94.36" cy="62.74" r="18.55"/>
<ellipse class="st0" cx="72.12" cy="73.29" rx="13.49" ry="15.52"/>
<path class="st2" d="M78.79,159.45c9.13,8.76,24.6,12.29,37.97,6.62c20.32-8.62,28.73-40.56-17.33-38.65
	c-5.2,0.22-20.29,5.56-25.54,12.66C67.48,148.73,75.3,156.11,78.79,159.45z"/>
<path d="M72.28,146.33l-1.68-0.15c0.06-0.65,1.76-15.98,31.56-19.68l0.21,1.67C74.03,131.69,72.29,146.18,72.28,146.33z"/>
<ellipse class="st2" cx="71.03" cy="91.49" rx="9.86" ry="14.29"/>
<path class="st2" d="M67.76,78.06c0,0-1.08-37.31,29.9-40.34c20.17-1.97,24.43,9.58,24.43,9.58h-1.98
	c-4.41-9.35-44.06-17.99-45.82,30.76H67.76z"/>
<path class="st7" d="M65.4,102.62c-4.46,0-8.1-4.8-8.1-10.7c0-5.9,3.63-10.7,8.1-10.7s8.1,4.8,8.1,10.7
	C73.5,97.82,69.87,102.62,65.4,102.62z M65.4,83.47c-3.22,0-5.85,3.79-5.85,8.45c0,4.66,2.62,8.45,5.85,8.45s5.85-3.79,5.85-8.45
	C71.25,87.26,68.63,83.47,65.4,83.47z"/>
<ellipse class="st2" cx="120.34" cy="113.24" rx="6.39" ry="3.96"/>
<path class="st6" d="M94.69,131.72l1.58-11.29c0.37-2.64,2.51-4.59,5.04-4.59h0.45c2.3,0,4.31,1.62,4.91,3.96l3.04,11.75
	c0.54,2.1-0.14,4.38-1.8,5.67c-1.96,1.52-5.22,2.56-10.25,0.19C95.57,136.44,94.36,134.11,94.69,131.72z"/>
<path class="st2" d="M121.66,115.25c-3.34,0-5.83-0.28-6.04-0.3l0.32-2.79c0.1,0.01,10.34,1.14,17.08-1.28
	c3.15-1.14,5.13-4.42,4.71-7.81c-0.28-2.23-1.16-8-3.3-13.26l2.61-1.06c2.26,5.57,3.19,11.62,3.48,13.97
	c0.59,4.68-2.17,9.22-6.54,10.8C130.11,114.91,125.36,115.25,121.66,115.25z"/>
<path d="M113.74,125.72c-16.83,0-33.25-15.62-33.47-15.83l1.17-1.21c0.28,0.27,27.91,26.55,47.2,9.75l1.11,1.27
	C124.73,124.07,119.21,125.72,113.74,125.72z"/>
<path d="M103.54,139.94c-3.17,0-6.11-1.68-6.31-1.79l0.85-1.46c0.06,0.04,6.35,3.61,9.51-0.27c1.02-1.25,1.41-3,1.04-4.67
	l-1.55-7.04l1.65-0.36l1.55,7.04c0.49,2.2-0.01,4.43-1.37,6.1C107.38,139.35,105.42,139.94,103.54,139.94z"/>
<path d="M75.23,78.11l-1.68-0.1C74,70.23,76.16,51.43,86.4,44.88l0.91,1.42C77.72,52.43,75.67,70.59,75.23,78.11z"/>
<path d="M71.03,106.62c-2.2,0-4.31-0.93-6.1-2.68l1.18-1.21c1.47,1.44,3.17,2.2,4.92,2.2c4.97,0,9.02-6.03,9.02-13.44
	S76,78.05,71.03,78.05c-1.29,0-2.54,0.4-3.71,1.2l-0.95-1.39c1.46-0.99,3.02-1.49,4.66-1.49c5.9,0,10.71,6.79,10.71,15.13
	S76.93,106.62,71.03,106.62z"/>
<path class="st0" d="M107.69,51.69c2.7-1.15,5.73-1.79,8.95-1.79c11.11,0,20.12,7.7,20.12,17.2s-9.01,17.2-20.12,17.2
	s-20.12-7.7-20.12-17.2C96.51,60.35,101.07,54.51,107.69,51.69"/>
<ellipse class="st0" cx="124.44" cy="49.9" rx="16.75" ry="15.08"/>
<path d="M116.64,85.15v-1.69c10.63,0,19.28-7.34,19.28-16.36c0-6.58-4.62-12.5-11.77-15.07l0.57-1.59
	c7.83,2.82,12.88,9.35,12.88,16.66C137.61,77.06,128.2,85.15,116.64,85.15z"/>
<path d="M135.87,61.93l-1.07-1.3c3.73-3.08,5.72-6.44,5.91-9.99c0.28-5.29-3.53-9.25-3.56-9.29l1.21-1.18
	c0.18,0.18,4.37,4.54,4.04,10.56C142.18,54.77,139.98,58.54,135.87,61.93z"/>
<path d="M59.76,81.59c-6.64-17.18,6.21-23.09,6.34-23.15l0.68,1.54c-0.47,0.21-11.5,5.36-5.45,21L59.76,81.59z"/>
<path d="M108.61,52.35l-0.42-0.66c-1.78-2.81-7.07-5.31-7.12-5.33l0.71-1.53c0.22,0.1,5.11,2.42,7.4,5.35
	c1.15-0.48,3.65-1.31,6.64-1.11l-0.12,1.68c-3.59-0.24-6.39,1.21-6.42,1.23L108.61,52.35z"/>
<path d="M138.12,90.23l-1.47-0.83c2.9-5.16,0-12.66-0.03-12.74l1.57-0.62C138.32,76.38,141.42,84.36,138.12,90.23z"/>
</svg>
