<?xml version="1.0" encoding="utf-8"?>
<!-- Generator: Adobe Illustrator 24.1.1, SVG Export Plug-In . SVG Version: 6.00 Build 0)  -->
<svg version="1.1" id="Capa_1" xmlns="http://www.w3.org/2000/svg" xmlns:xlink="http://www.w3.org/1999/xlink" x="0px" y="0px"
	 viewBox="0 0 102.18 14.94" style="enable-background:new 0 0 102.18 14.94;" xml:space="preserve">
<style type="text/css">
	.st0{fill:#1E1E1C;}
</style>
<g>
	<g>
		<path class="st0" d="M0.25,4.87h2.4v1.25H2.8c0.3-0.47,0.71-0.84,1.22-1.13C4.54,4.7,5.11,4.56,5.73,4.56
			c0.73,0,1.34,0.17,1.83,0.51C8.05,5.4,8.41,5.82,8.61,6.31c0.3-0.48,0.72-0.89,1.27-1.24s1.21-0.52,1.99-0.52
			c0.58,0,1.09,0.09,1.52,0.28c0.43,0.19,0.78,0.45,1.06,0.79c0.28,0.34,0.49,0.74,0.63,1.22c0.14,0.47,0.21,0.99,0.21,1.55v6.02
			h-2.55V8.86c0-1.3-0.53-1.95-1.6-1.95c-0.34,0-0.64,0.08-0.9,0.22C9.99,7.29,9.77,7.49,9.6,7.74S9.29,8.3,9.19,8.65
			C9.09,9,9.04,9.38,9.04,9.78v4.64H6.49V8.86c0-1.3-0.56-1.95-1.68-1.95c-0.32,0-0.61,0.08-0.86,0.22C3.71,7.29,3.5,7.49,3.33,7.74
			S3.03,8.3,2.94,8.65C2.85,9,2.8,9.38,2.8,9.78v4.64H0.25V4.87z"/>
		<path class="st0" d="M23.19,13.41h-0.16c-0.3,0.36-0.66,0.68-1.08,0.94c-0.42,0.26-0.96,0.39-1.63,0.39
			c-0.49,0-0.96-0.08-1.39-0.24c-0.44-0.16-0.82-0.39-1.14-0.67c-0.33-0.29-0.58-0.63-0.76-1.03c-0.18-0.4-0.27-0.84-0.27-1.33
			c0-0.49,0.1-0.94,0.29-1.34c0.19-0.4,0.47-0.74,0.82-1.02c0.35-0.29,0.76-0.5,1.24-0.65c0.47-0.15,0.99-0.22,1.55-0.22
			c0.62,0,1.14,0.05,1.54,0.15c0.4,0.1,0.73,0.2,0.99,0.3V8.38c0-0.51-0.2-0.93-0.6-1.26c-0.4-0.33-0.9-0.5-1.5-0.5
			c-0.88,0-1.63,0.37-2.24,1.11L17,6.47c1.01-1.27,2.4-1.91,4.15-1.91c1.48,0,2.61,0.35,3.39,1.04c0.78,0.7,1.17,1.73,1.17,3.09
			v5.73h-2.51V13.41z M23.19,10.54c-0.3-0.14-0.61-0.26-0.93-0.34c-0.32-0.08-0.67-0.13-1.04-0.13c-0.61,0-1.08,0.13-1.41,0.4
			c-0.33,0.27-0.5,0.59-0.5,0.98c0,0.39,0.16,0.7,0.48,0.94c0.32,0.23,0.69,0.35,1.1,0.35c0.34,0,0.65-0.06,0.94-0.19
			c0.29-0.12,0.53-0.29,0.73-0.49c0.2-0.2,0.36-0.43,0.47-0.7C23.14,11.1,23.19,10.83,23.19,10.54z"/>
		<path class="st0" d="M27.46,12.32l4.87-5.26h-4.72V4.87h7.86v2.11l-4.87,5.26h4.95v2.18h-8.09V12.32z"/>
		<path class="st0" d="M42.96,13.41H42.8c-0.3,0.36-0.66,0.68-1.08,0.94c-0.42,0.26-0.96,0.39-1.63,0.39
			c-0.49,0-0.96-0.08-1.39-0.24c-0.44-0.16-0.82-0.39-1.14-0.67c-0.33-0.29-0.58-0.63-0.76-1.03c-0.18-0.4-0.27-0.84-0.27-1.33
			c0-0.49,0.1-0.94,0.29-1.34c0.19-0.4,0.47-0.74,0.82-1.02c0.35-0.29,0.76-0.5,1.24-0.65c0.47-0.15,0.99-0.22,1.55-0.22
			c0.62,0,1.14,0.05,1.54,0.15c0.4,0.1,0.73,0.2,0.99,0.3V8.38c0-0.51-0.2-0.93-0.6-1.26c-0.4-0.33-0.9-0.5-1.5-0.5
			c-0.88,0-1.63,0.37-2.24,1.11l-1.85-1.27c1.01-1.27,2.4-1.91,4.15-1.91c1.48,0,2.61,0.35,3.39,1.04c0.78,0.7,1.17,1.73,1.17,3.09
			v5.73h-2.51V13.41z M42.96,10.54c-0.3-0.14-0.61-0.26-0.93-0.34c-0.32-0.08-0.67-0.13-1.04-0.13c-0.61,0-1.08,0.13-1.41,0.4
			c-0.33,0.27-0.5,0.59-0.5,0.98c0,0.39,0.16,0.7,0.48,0.94c0.32,0.23,0.69,0.35,1.1,0.35c0.34,0,0.65-0.06,0.94-0.19
			c0.29-0.12,0.53-0.29,0.73-0.49c0.2-0.2,0.36-0.43,0.47-0.7C42.9,11.1,42.96,10.83,42.96,10.54z"/>
		<path class="st0" d="M51.79,0.46h2.55v4.19l-0.16,1.36h0.16c0.23-0.4,0.6-0.75,1.09-1.03c0.49-0.29,1.1-0.43,1.83-0.43
			c0.61,0,1.19,0.13,1.74,0.38c0.55,0.25,1.04,0.6,1.46,1.05c0.42,0.45,0.76,0.98,1,1.61c0.25,0.62,0.37,1.31,0.37,2.05
			c0,0.74-0.12,1.42-0.37,2.05s-0.58,1.16-1,1.61c-0.42,0.45-0.91,0.8-1.46,1.05c-0.55,0.25-1.13,0.38-1.74,0.38
			c-0.73,0-1.34-0.14-1.83-0.43c-0.49-0.29-0.86-0.63-1.09-1.03h-0.16v1.15h-2.4V0.46z M56.74,12.37c0.34,0,0.66-0.07,0.96-0.2
			c0.3-0.13,0.57-0.31,0.81-0.55c0.23-0.23,0.42-0.52,0.57-0.86c0.14-0.34,0.21-0.71,0.21-1.13c0-0.42-0.07-0.79-0.21-1.13
			c-0.14-0.34-0.33-0.62-0.57-0.86s-0.5-0.42-0.81-0.55c-0.31-0.13-0.63-0.19-0.96-0.19c-0.34,0-0.66,0.06-0.96,0.19
			c-0.31,0.12-0.58,0.3-0.81,0.54s-0.42,0.52-0.57,0.86s-0.21,0.72-0.21,1.15s0.07,0.81,0.21,1.15s0.33,0.62,0.57,0.86
			c0.23,0.23,0.5,0.41,0.81,0.54C56.08,12.31,56.4,12.37,56.74,12.37z"/>
		<path class="st0" d="M63.29,4.87h2.4v1.33h0.16c0.12-0.23,0.27-0.45,0.47-0.64c0.2-0.2,0.41-0.36,0.65-0.51
			c0.24-0.14,0.5-0.26,0.78-0.35c0.28-0.09,0.56-0.13,0.83-0.13c0.34,0,0.63,0.04,0.87,0.11c0.24,0.07,0.44,0.17,0.61,0.28
			l-0.68,2.28c-0.16-0.08-0.33-0.14-0.52-0.19s-0.42-0.07-0.69-0.07c-0.35,0-0.67,0.07-0.96,0.21c-0.29,0.14-0.53,0.33-0.73,0.58
			c-0.2,0.25-0.36,0.54-0.47,0.87c-0.11,0.33-0.17,0.7-0.17,1.09v4.7h-2.55V4.87z"/>
		<path class="st0" d="M76.72,13.41h-0.16c-0.3,0.36-0.66,0.68-1.08,0.94c-0.42,0.26-0.96,0.39-1.63,0.39
			c-0.49,0-0.96-0.08-1.39-0.24c-0.44-0.16-0.82-0.39-1.14-0.67s-0.58-0.63-0.76-1.03c-0.18-0.4-0.27-0.84-0.27-1.33
			c0-0.49,0.1-0.94,0.29-1.34c0.19-0.4,0.47-0.74,0.82-1.02c0.35-0.29,0.76-0.5,1.24-0.65c0.47-0.15,0.99-0.22,1.55-0.22
			c0.62,0,1.14,0.05,1.54,0.15c0.4,0.1,0.73,0.2,0.99,0.3V8.38c0-0.51-0.2-0.93-0.6-1.26c-0.4-0.33-0.9-0.5-1.5-0.5
			c-0.88,0-1.63,0.37-2.24,1.11l-1.85-1.27c1.01-1.27,2.4-1.91,4.15-1.91c1.48,0,2.61,0.35,3.39,1.04c0.78,0.7,1.17,1.73,1.17,3.09
			v5.73h-2.51V13.41z M76.72,10.54c-0.3-0.14-0.61-0.26-0.93-0.34c-0.32-0.08-0.67-0.13-1.04-0.13c-0.61,0-1.08,0.13-1.41,0.4
			s-0.5,0.59-0.5,0.98c0,0.39,0.16,0.7,0.48,0.94c0.32,0.23,0.69,0.35,1.1,0.35c0.34,0,0.65-0.06,0.94-0.19
			c0.29-0.12,0.53-0.29,0.73-0.49c0.2-0.2,0.36-0.43,0.47-0.7C76.67,11.1,76.72,10.83,76.72,10.54z"/>
		<path class="st0" d="M83.66,6.12h0.16c0.3-0.48,0.7-0.86,1.21-1.14c0.51-0.28,1.08-0.42,1.74-0.42c0.6,0,1.12,0.1,1.58,0.29
			c0.45,0.19,0.83,0.47,1.12,0.83c0.29,0.36,0.51,0.79,0.66,1.29c0.15,0.5,0.22,1.06,0.22,1.67v5.79h-2.55V8.94
			c0-0.69-0.15-1.2-0.46-1.53c-0.31-0.33-0.75-0.5-1.33-0.5c-0.35,0-0.66,0.08-0.93,0.22c-0.27,0.15-0.49,0.35-0.68,0.6
			s-0.33,0.55-0.43,0.9c-0.1,0.34-0.15,0.71-0.15,1.1v4.68h-2.55V4.87h2.4V6.12z"/>
		<path class="st0" d="M99.57,13.27h-0.16c-0.23,0.4-0.6,0.75-1.09,1.03s-1.1,0.43-1.83,0.43c-0.61,0-1.19-0.13-1.75-0.38
			c-0.55-0.25-1.04-0.6-1.46-1.05c-0.42-0.45-0.76-0.98-1-1.61s-0.37-1.31-0.37-2.05c0-0.74,0.12-1.42,0.37-2.05
			c0.25-0.62,0.58-1.16,1-1.61c0.42-0.45,0.91-0.8,1.46-1.05c0.55-0.25,1.13-0.38,1.75-0.38c0.73,0,1.34,0.14,1.83,0.43
			c0.49,0.29,0.86,0.63,1.09,1.03h0.16l-0.16-1.36V0.46h2.55v13.96h-2.4V13.27z M97.01,12.37c0.34,0,0.66-0.06,0.96-0.19
			c0.3-0.12,0.58-0.3,0.81-0.54c0.23-0.23,0.42-0.52,0.57-0.86s0.21-0.72,0.21-1.15s-0.07-0.81-0.21-1.15s-0.33-0.62-0.57-0.86
			c-0.23-0.23-0.5-0.41-0.81-0.54c-0.31-0.12-0.63-0.19-0.96-0.19s-0.66,0.07-0.96,0.19c-0.31,0.13-0.58,0.31-0.81,0.55
			C95,7.89,94.82,8.18,94.67,8.51c-0.14,0.34-0.21,0.71-0.21,1.13c0,0.42,0.07,0.79,0.21,1.13c0.14,0.34,0.33,0.62,0.56,0.86
			c0.23,0.23,0.5,0.42,0.81,0.55C96.35,12.31,96.67,12.37,97.01,12.37z"/>
	</g>
</g>
</svg>
