<?xml version="1.0" encoding="utf-8"?>
<!-- Generator: Adobe Illustrator 24.1.1, SVG Export Plug-In . SVG Version: 6.00 Build 0)  -->
<svg version="1.1" id="Capa_1" xmlns="http://www.w3.org/2000/svg" xmlns:xlink="http://www.w3.org/1999/xlink" x="0px" y="0px"
	 viewBox="0 0 18.28 18.28" style="enable-background:new 0 0 18.28 18.28;" xml:space="preserve">
<style type="text/css">
	.st0{fill:#1D1E1C;}
	.st1{fill:#FF80CC;}
</style>
<g>
	<g>
		<path class="st0" d="M-48.4,53.11h2.4v1.25h0.16c0.3-0.47,0.71-0.84,1.22-1.13c0.51-0.29,1.08-0.43,1.71-0.43
			c0.73,0,1.34,0.17,1.83,0.51c0.49,0.34,0.84,0.75,1.05,1.25c0.3-0.48,0.72-0.89,1.27-1.24s1.21-0.52,1.99-0.52
			c0.58,0,1.09,0.09,1.52,0.28c0.43,0.19,0.78,0.45,1.06,0.79c0.28,0.34,0.49,0.74,0.63,1.22c0.14,0.47,0.21,0.99,0.21,1.55v6.02
			h-2.55V57.1c0-1.3-0.53-1.95-1.6-1.95c-0.34,0-0.64,0.08-0.9,0.22c-0.26,0.15-0.48,0.35-0.65,0.6s-0.31,0.56-0.41,0.91
			c-0.1,0.35-0.15,0.73-0.15,1.13v4.64h-2.55V57.1c0-1.3-0.56-1.95-1.68-1.95c-0.32,0-0.61,0.08-0.86,0.22
			c-0.25,0.15-0.46,0.35-0.62,0.6s-0.3,0.56-0.39,0.91c-0.09,0.35-0.14,0.73-0.14,1.13v4.64h-2.55V53.11z"/>
		<path class="st0" d="M-25.46,61.65h-0.16c-0.3,0.36-0.66,0.68-1.08,0.94c-0.42,0.26-0.96,0.39-1.63,0.39
			c-0.49,0-0.96-0.08-1.39-0.24c-0.44-0.16-0.82-0.39-1.14-0.67c-0.33-0.29-0.58-0.63-0.76-1.03c-0.18-0.4-0.27-0.84-0.27-1.33
			c0-0.49,0.1-0.94,0.29-1.34c0.19-0.4,0.47-0.74,0.82-1.02c0.35-0.29,0.76-0.5,1.24-0.65c0.47-0.15,0.99-0.22,1.55-0.22
			c0.62,0,1.14,0.05,1.54,0.15c0.4,0.1,0.73,0.2,0.99,0.3v-0.29c0-0.51-0.2-0.93-0.6-1.26c-0.4-0.33-0.9-0.5-1.5-0.5
			c-0.88,0-1.63,0.37-2.24,1.11l-1.85-1.27c1.01-1.27,2.4-1.91,4.15-1.91c1.48,0,2.61,0.35,3.39,1.04c0.78,0.7,1.17,1.73,1.17,3.09
			v5.73h-2.51V61.65z M-25.46,58.78c-0.3-0.14-0.61-0.26-0.93-0.34c-0.32-0.08-0.67-0.13-1.04-0.13c-0.61,0-1.08,0.13-1.41,0.4
			c-0.33,0.27-0.5,0.59-0.5,0.98c0,0.39,0.16,0.7,0.48,0.94c0.32,0.23,0.69,0.35,1.1,0.35c0.34,0,0.65-0.06,0.94-0.19
			c0.29-0.12,0.53-0.29,0.73-0.49c0.2-0.2,0.36-0.43,0.47-0.7C-25.52,59.34-25.46,59.07-25.46,58.78z"/>
		<path class="st0" d="M-21.19,60.56l4.87-5.26h-4.72v-2.18h7.86v2.11l-4.87,5.26h4.95v2.18h-8.09V60.56z"/>
		<path class="st0" d="M-5.7,61.65h-0.16c-0.3,0.36-0.66,0.68-1.08,0.94c-0.42,0.26-0.96,0.39-1.63,0.39
			c-0.49,0-0.96-0.08-1.39-0.24c-0.44-0.16-0.82-0.39-1.14-0.67c-0.33-0.29-0.58-0.63-0.76-1.03c-0.18-0.4-0.27-0.84-0.27-1.33
			c0-0.49,0.1-0.94,0.29-1.34c0.19-0.4,0.47-0.74,0.82-1.02c0.35-0.29,0.76-0.5,1.24-0.65c0.47-0.15,0.99-0.22,1.55-0.22
			c0.62,0,1.14,0.05,1.54,0.15c0.4,0.1,0.73,0.2,0.99,0.3v-0.29c0-0.51-0.2-0.93-0.6-1.26c-0.4-0.33-0.9-0.5-1.5-0.5
			c-0.88,0-1.63,0.37-2.24,1.11l-1.85-1.27c1.01-1.27,2.4-1.91,4.15-1.91c1.48,0,2.61,0.35,3.39,1.04c0.78,0.7,1.17,1.73,1.17,3.09
			v5.73H-5.7V61.65z M-5.7,58.78c-0.3-0.14-0.61-0.26-0.93-0.34c-0.32-0.08-0.67-0.13-1.04-0.13c-0.61,0-1.08,0.13-1.41,0.4
			c-0.33,0.27-0.5,0.59-0.5,0.98c0,0.39,0.16,0.7,0.48,0.94c0.32,0.23,0.69,0.35,1.1,0.35c0.34,0,0.65-0.06,0.94-0.19
			c0.29-0.12,0.53-0.29,0.73-0.49c0.2-0.2,0.36-0.43,0.47-0.7C-5.75,59.34-5.7,59.07-5.7,58.78z"/>
		<path class="st0" d="M3.13,48.7h2.55v4.19l-0.16,1.36h0.16c0.23-0.4,0.6-0.75,1.09-1.03c0.49-0.29,1.1-0.43,1.83-0.43
			c0.61,0,1.19,0.13,1.74,0.38c0.55,0.25,1.04,0.6,1.46,1.05c0.42,0.45,0.76,0.98,1,1.61c0.25,0.62,0.37,1.31,0.37,2.05
			c0,0.74-0.12,1.42-0.37,2.05s-0.58,1.16-1,1.61c-0.42,0.45-0.91,0.8-1.46,1.05c-0.55,0.25-1.13,0.38-1.74,0.38
			c-0.73,0-1.34-0.14-1.83-0.43c-0.49-0.29-0.86-0.63-1.09-1.03H5.53v1.15h-2.4V48.7z M8.09,60.61c0.34,0,0.66-0.07,0.96-0.2
			c0.3-0.13,0.57-0.31,0.81-0.55c0.23-0.23,0.42-0.52,0.57-0.86c0.14-0.34,0.21-0.71,0.21-1.13c0-0.42-0.07-0.79-0.21-1.13
			c-0.14-0.34-0.33-0.62-0.57-0.86s-0.5-0.42-0.81-0.55c-0.31-0.13-0.63-0.19-0.96-0.19c-0.34,0-0.66,0.06-0.96,0.19
			c-0.31,0.12-0.58,0.3-0.81,0.54s-0.42,0.52-0.57,0.86s-0.21,0.72-0.21,1.15s0.07,0.81,0.21,1.15s0.33,0.62,0.57,0.86
			c0.23,0.23,0.5,0.41,0.81,0.54C7.43,60.55,7.75,60.61,8.09,60.61z"/>
		<path class="st0" d="M14.63,53.11h2.4v1.33h0.16c0.12-0.23,0.27-0.45,0.47-0.64c0.2-0.2,0.41-0.36,0.65-0.51
			c0.24-0.14,0.5-0.26,0.78-0.35c0.28-0.09,0.56-0.13,0.83-0.13c0.34,0,0.63,0.04,0.87,0.11c0.24,0.07,0.44,0.17,0.61,0.28
			l-0.68,2.28c-0.16-0.08-0.33-0.14-0.52-0.19s-0.42-0.07-0.69-0.07c-0.35,0-0.67,0.07-0.96,0.21c-0.29,0.14-0.53,0.33-0.73,0.58
			c-0.2,0.25-0.36,0.54-0.47,0.87c-0.11,0.33-0.17,0.7-0.17,1.09v4.7h-2.55V53.11z"/>
		<path class="st0" d="M28.06,61.65h-0.16c-0.3,0.36-0.66,0.68-1.08,0.94c-0.42,0.26-0.96,0.39-1.63,0.39
			c-0.49,0-0.96-0.08-1.39-0.24c-0.44-0.16-0.82-0.39-1.14-0.67s-0.58-0.63-0.76-1.03c-0.18-0.4-0.27-0.84-0.27-1.33
			c0-0.49,0.1-0.94,0.29-1.34c0.19-0.4,0.47-0.74,0.82-1.02c0.35-0.29,0.76-0.5,1.24-0.65c0.47-0.15,0.99-0.22,1.55-0.22
			c0.62,0,1.14,0.05,1.54,0.15c0.4,0.1,0.73,0.2,0.99,0.3v-0.29c0-0.51-0.2-0.93-0.6-1.26c-0.4-0.33-0.9-0.5-1.5-0.5
			c-0.88,0-1.63,0.37-2.24,1.11l-1.85-1.27c1.01-1.27,2.4-1.91,4.15-1.91c1.48,0,2.61,0.35,3.39,1.04c0.78,0.7,1.17,1.73,1.17,3.09
			v5.73h-2.51V61.65z M28.06,58.78c-0.3-0.14-0.61-0.26-0.93-0.34c-0.32-0.08-0.67-0.13-1.04-0.13c-0.61,0-1.08,0.13-1.41,0.4
			s-0.5,0.59-0.5,0.98c0,0.39,0.16,0.7,0.48,0.94c0.32,0.23,0.69,0.35,1.1,0.35c0.34,0,0.65-0.06,0.94-0.19
			c0.29-0.12,0.53-0.29,0.73-0.49c0.2-0.2,0.36-0.43,0.47-0.7C28.01,59.34,28.06,59.07,28.06,58.78z"/>
		<path class="st0" d="M35,54.36h0.16c0.3-0.48,0.7-0.86,1.21-1.14c0.51-0.28,1.08-0.42,1.74-0.42c0.6,0,1.12,0.1,1.58,0.29
			c0.45,0.19,0.83,0.47,1.12,0.83c0.29,0.36,0.51,0.79,0.66,1.29c0.15,0.5,0.22,1.06,0.22,1.67v5.79h-2.55v-5.48
			c0-0.69-0.15-1.2-0.46-1.53c-0.31-0.33-0.75-0.5-1.33-0.5c-0.35,0-0.66,0.08-0.93,0.22c-0.27,0.15-0.49,0.35-0.68,0.6
			s-0.33,0.55-0.43,0.9c-0.1,0.34-0.15,0.71-0.15,1.1v4.68h-2.55v-9.55H35V54.36z"/>
		<path class="st0" d="M50.91,61.51h-0.16c-0.23,0.4-0.6,0.75-1.09,1.03s-1.1,0.43-1.83,0.43c-0.61,0-1.19-0.13-1.75-0.38
			c-0.55-0.25-1.04-0.6-1.46-1.05c-0.42-0.45-0.76-0.98-1-1.61s-0.37-1.31-0.37-2.05c0-0.74,0.12-1.42,0.37-2.05
			c0.25-0.62,0.58-1.16,1-1.61c0.42-0.45,0.91-0.8,1.46-1.05c0.55-0.25,1.13-0.38,1.75-0.38c0.73,0,1.34,0.14,1.83,0.43
			c0.49,0.29,0.86,0.63,1.09,1.03h0.16l-0.16-1.36V48.7h2.55v13.96h-2.4V61.51z M48.36,60.61c0.34,0,0.66-0.06,0.96-0.19
			c0.3-0.12,0.58-0.3,0.81-0.54c0.23-0.23,0.42-0.52,0.57-0.86s0.21-0.72,0.21-1.15s-0.07-0.81-0.21-1.15s-0.33-0.62-0.57-0.86
			c-0.23-0.23-0.5-0.41-0.81-0.54c-0.31-0.12-0.63-0.19-0.96-0.19s-0.66,0.07-0.96,0.19c-0.31,0.13-0.58,0.31-0.81,0.55
			c-0.23,0.23-0.42,0.52-0.56,0.86c-0.14,0.34-0.21,0.71-0.21,1.13c0,0.42,0.07,0.79,0.21,1.13c0.14,0.34,0.33,0.62,0.56,0.86
			c0.23,0.23,0.5,0.42,0.81,0.55C47.7,60.55,48.02,60.61,48.36,60.61z"/>
	</g>
</g>
<g>
	<g>
		<path class="st0" d="M-48.05,22.69h2.4v1.25h0.16c0.3-0.47,0.71-0.84,1.22-1.13c0.51-0.29,1.08-0.43,1.71-0.43
			c0.73,0,1.34,0.17,1.83,0.51c0.49,0.34,0.84,0.75,1.05,1.25c0.3-0.48,0.72-0.89,1.27-1.24s1.21-0.52,1.99-0.52
			c0.58,0,1.09,0.09,1.52,0.28c0.43,0.19,0.78,0.45,1.06,0.79c0.28,0.34,0.49,0.74,0.63,1.22c0.14,0.47,0.21,0.99,0.21,1.55v6.02
			h-2.55v-5.56c0-1.3-0.53-1.95-1.6-1.95c-0.34,0-0.64,0.08-0.9,0.22c-0.26,0.15-0.48,0.35-0.65,0.6s-0.31,0.56-0.41,0.91
			c-0.1,0.35-0.15,0.73-0.15,1.13v4.64h-2.55v-5.56c0-1.3-0.56-1.95-1.68-1.95c-0.32,0-0.61,0.08-0.86,0.22
			c-0.25,0.15-0.46,0.35-0.62,0.6s-0.3,0.56-0.39,0.91c-0.09,0.35-0.14,0.73-0.14,1.13v4.64h-2.55V22.69z"/>
		<path class="st0" d="M-30.9,18.28h2.55v4.19l-0.16,1.36h0.16c0.23-0.4,0.6-0.75,1.09-1.03c0.49-0.29,1.1-0.43,1.83-0.43
			c0.61,0,1.19,0.13,1.74,0.38c0.55,0.25,1.04,0.6,1.46,1.05c0.42,0.45,0.76,0.98,1,1.61c0.25,0.62,0.37,1.31,0.37,2.05
			s-0.12,1.42-0.37,2.05c-0.25,0.62-0.58,1.16-1,1.61c-0.42,0.45-0.91,0.8-1.46,1.05c-0.55,0.25-1.13,0.38-1.74,0.38
			c-0.73,0-1.34-0.14-1.83-0.43c-0.49-0.29-0.86-0.63-1.09-1.03h-0.16v1.15h-2.4V18.28z M-25.95,30.19c0.34,0,0.66-0.06,0.96-0.19
			c0.31-0.13,0.57-0.31,0.81-0.55c0.23-0.23,0.42-0.52,0.56-0.86s0.21-0.71,0.21-1.13c0-0.42-0.07-0.79-0.21-1.13
			s-0.33-0.62-0.56-0.86c-0.23-0.23-0.5-0.42-0.81-0.55c-0.31-0.13-0.63-0.19-0.96-0.19c-0.34,0-0.66,0.06-0.96,0.19
			c-0.31,0.12-0.58,0.3-0.81,0.54s-0.42,0.52-0.57,0.86s-0.21,0.72-0.21,1.15s0.07,0.81,0.21,1.15s0.33,0.62,0.57,0.86
			s0.5,0.41,0.81,0.54C-26.61,30.13-26.28,30.19-25.95,30.19z"/>
	</g>
</g>
<g>
	<g>
		<g>
			<path class="st0" d="M-45.22,81.12h2.4v1.25h0.16c0.3-0.47,0.71-0.84,1.22-1.13c0.51-0.29,1.08-0.43,1.71-0.43
				c0.73,0,1.34,0.17,1.83,0.51c0.49,0.34,0.84,0.75,1.05,1.25c0.3-0.48,0.72-0.89,1.27-1.24c0.55-0.34,1.21-0.52,1.99-0.52
				c0.58,0,1.09,0.09,1.52,0.28c0.43,0.19,0.78,0.45,1.06,0.79s0.49,0.74,0.63,1.22c0.14,0.47,0.21,0.99,0.21,1.55v6.02h-2.55v-5.56
				c0-1.3-0.53-1.95-1.6-1.95c-0.34,0-0.64,0.08-0.9,0.22s-0.48,0.35-0.65,0.6c-0.18,0.25-0.31,0.56-0.41,0.91
				c-0.1,0.35-0.15,0.73-0.15,1.13v4.64h-2.55v-5.56c0-1.3-0.56-1.95-1.68-1.95c-0.32,0-0.61,0.08-0.86,0.22
				c-0.25,0.15-0.46,0.35-0.62,0.6c-0.17,0.25-0.3,0.56-0.39,0.91c-0.09,0.35-0.14,0.73-0.14,1.13v4.64h-2.55V81.12z"/>
			<path class="st0" d="M-22.28,89.66h-0.16c-0.3,0.36-0.66,0.68-1.08,0.94c-0.42,0.26-0.96,0.39-1.63,0.39
				c-0.49,0-0.96-0.08-1.39-0.24c-0.44-0.16-0.82-0.39-1.14-0.67c-0.33-0.29-0.58-0.63-0.76-1.03c-0.18-0.4-0.27-0.84-0.27-1.33
				c0-0.49,0.1-0.94,0.29-1.33c0.19-0.4,0.47-0.74,0.82-1.02c0.35-0.29,0.76-0.5,1.24-0.65c0.47-0.15,0.99-0.22,1.55-0.22
				c0.62,0,1.14,0.05,1.54,0.15c0.4,0.1,0.73,0.2,0.99,0.3v-0.29c0-0.51-0.2-0.93-0.6-1.26s-0.9-0.5-1.5-0.5
				c-0.88,0-1.63,0.37-2.24,1.11l-1.85-1.27c1.01-1.27,2.4-1.91,4.15-1.91c1.48,0,2.61,0.35,3.39,1.04c0.78,0.7,1.17,1.73,1.17,3.09
				v5.73h-2.51V89.66z M-22.28,86.79c-0.3-0.14-0.61-0.26-0.93-0.34c-0.32-0.08-0.67-0.13-1.04-0.13c-0.61,0-1.08,0.13-1.41,0.4
				c-0.33,0.27-0.5,0.59-0.5,0.98s0.16,0.7,0.48,0.94c0.32,0.23,0.69,0.35,1.1,0.35c0.34,0,0.65-0.06,0.94-0.19
				c0.29-0.12,0.53-0.29,0.73-0.49c0.2-0.2,0.36-0.44,0.47-0.7C-22.34,87.35-22.28,87.08-22.28,86.79z"/>
			<path class="st0" d="M-18.01,88.57l4.87-5.26h-4.72v-2.18H-10v2.11l-4.87,5.26h4.95v2.18h-8.09V88.57z"/>
			<path class="st0" d="M-2.51,89.66h-0.16c-0.3,0.36-0.66,0.68-1.08,0.94c-0.42,0.26-0.96,0.39-1.63,0.39
				c-0.49,0-0.96-0.08-1.39-0.24c-0.44-0.16-0.82-0.39-1.14-0.67c-0.33-0.29-0.58-0.63-0.76-1.03c-0.18-0.4-0.27-0.84-0.27-1.33
				c0-0.49,0.1-0.94,0.29-1.33c0.19-0.4,0.47-0.74,0.82-1.02c0.35-0.29,0.76-0.5,1.24-0.65c0.47-0.15,0.99-0.22,1.55-0.22
				c0.62,0,1.14,0.05,1.54,0.15c0.4,0.1,0.73,0.2,0.99,0.3v-0.29c0-0.51-0.2-0.93-0.6-1.26s-0.9-0.5-1.5-0.5
				c-0.88,0-1.63,0.37-2.24,1.11l-1.85-1.27c1.01-1.27,2.4-1.91,4.15-1.91c1.48,0,2.61,0.35,3.39,1.04C-0.39,82.55,0,83.58,0,84.94
				v5.73h-2.51V89.66z M-2.51,86.79c-0.3-0.14-0.61-0.26-0.93-0.34c-0.32-0.08-0.67-0.13-1.04-0.13c-0.61,0-1.08,0.13-1.41,0.4
				c-0.33,0.27-0.5,0.59-0.5,0.98s0.16,0.7,0.48,0.94c0.32,0.23,0.69,0.35,1.1,0.35c0.34,0,0.65-0.06,0.94-0.19
				c0.29-0.12,0.53-0.29,0.73-0.49c0.2-0.2,0.36-0.44,0.47-0.7C-2.57,87.35-2.51,87.08-2.51,86.79z"/>
		</g>
	</g>
	<g>
		<path class="st0" d="M-47.65,90.62h2.55v4.19l-0.16,1.37h0.16c0.23-0.4,0.6-0.75,1.09-1.03c0.49-0.29,1.1-0.43,1.83-0.43
			c0.61,0,1.19,0.13,1.74,0.38c0.55,0.25,1.04,0.6,1.46,1.05c0.42,0.45,0.76,0.98,1,1.61c0.25,0.62,0.37,1.31,0.37,2.05
			c0,0.74-0.12,1.42-0.37,2.05c-0.25,0.62-0.58,1.16-1,1.61c-0.42,0.45-0.91,0.8-1.46,1.05c-0.55,0.25-1.13,0.38-1.74,0.38
			c-0.73,0-1.34-0.14-1.83-0.43c-0.49-0.29-0.86-0.63-1.09-1.03h-0.16v1.15h-2.4V90.62z M-42.69,102.53c0.34,0,0.66-0.07,0.96-0.2
			c0.31-0.13,0.57-0.31,0.81-0.55c0.23-0.23,0.42-0.52,0.56-0.86s0.21-0.71,0.21-1.13c0-0.42-0.07-0.79-0.21-1.13
			s-0.33-0.62-0.56-0.86c-0.23-0.23-0.5-0.42-0.81-0.55c-0.31-0.13-0.63-0.19-0.96-0.19c-0.34,0-0.66,0.06-0.96,0.18
			c-0.31,0.12-0.58,0.3-0.81,0.54c-0.23,0.23-0.42,0.52-0.57,0.86s-0.21,0.72-0.21,1.15s0.07,0.81,0.21,1.15s0.33,0.62,0.57,0.86
			c0.23,0.23,0.5,0.41,0.81,0.54C-43.35,102.47-43.03,102.53-42.69,102.53z"/>
		<path class="st0" d="M-36.14,95.03h2.4v1.33h0.16c0.12-0.23,0.27-0.45,0.47-0.64c0.2-0.2,0.41-0.37,0.65-0.51
			c0.24-0.14,0.5-0.26,0.78-0.35c0.28-0.09,0.56-0.13,0.83-0.13c0.34,0,0.63,0.04,0.87,0.11c0.24,0.07,0.44,0.17,0.61,0.28
			l-0.68,2.28c-0.16-0.08-0.33-0.14-0.52-0.18c-0.19-0.05-0.42-0.07-0.69-0.07c-0.35,0-0.67,0.07-0.96,0.21
			c-0.29,0.14-0.53,0.33-0.73,0.58c-0.2,0.25-0.36,0.54-0.47,0.87c-0.11,0.33-0.17,0.7-0.17,1.09v4.7h-2.55V95.03z"/>
		<path class="st0" d="M-22.71,103.57h-0.16c-0.3,0.36-0.66,0.68-1.08,0.94c-0.42,0.26-0.96,0.39-1.63,0.39
			c-0.49,0-0.96-0.08-1.39-0.24c-0.44-0.16-0.82-0.39-1.14-0.67c-0.33-0.29-0.58-0.63-0.76-1.03c-0.18-0.4-0.27-0.84-0.27-1.33
			c0-0.49,0.1-0.94,0.29-1.34c0.19-0.4,0.47-0.74,0.82-1.02c0.35-0.29,0.76-0.5,1.24-0.65c0.47-0.15,0.99-0.22,1.55-0.22
			c0.62,0,1.14,0.05,1.54,0.15s0.73,0.2,0.99,0.3v-0.29c0-0.51-0.2-0.93-0.6-1.26c-0.4-0.33-0.9-0.5-1.5-0.5
			c-0.88,0-1.63,0.37-2.24,1.11l-1.85-1.27c1.01-1.27,2.4-1.91,4.15-1.91c1.48,0,2.61,0.35,3.39,1.04c0.78,0.7,1.17,1.73,1.17,3.09
			v5.73h-2.51V103.57z M-22.71,100.7c-0.3-0.14-0.61-0.26-0.93-0.34c-0.32-0.08-0.67-0.13-1.04-0.13c-0.61,0-1.08,0.13-1.41,0.4
			c-0.33,0.27-0.5,0.59-0.5,0.98c0,0.39,0.16,0.7,0.48,0.94c0.32,0.23,0.69,0.35,1.1,0.35c0.34,0,0.65-0.06,0.94-0.19
			c0.29-0.12,0.53-0.29,0.73-0.49c0.2-0.2,0.36-0.43,0.47-0.7C-22.77,101.26-22.71,100.99-22.71,100.7z"/>
		<path class="st0" d="M-15.77,96.27h0.16c0.3-0.48,0.7-0.86,1.21-1.14c0.51-0.28,1.08-0.42,1.73-0.42c0.6,0,1.12,0.1,1.58,0.29
			c0.45,0.2,0.83,0.47,1.12,0.83c0.29,0.36,0.51,0.79,0.66,1.29s0.22,1.06,0.22,1.67v5.79h-2.55V99.1c0-0.69-0.15-1.2-0.46-1.53
			s-0.75-0.5-1.33-0.5c-0.35,0-0.66,0.08-0.93,0.22c-0.27,0.15-0.49,0.35-0.68,0.6c-0.19,0.25-0.33,0.55-0.43,0.9
			c-0.1,0.34-0.15,0.71-0.15,1.1v4.68h-2.55v-9.55h2.4V96.27z"/>
		<path class="st0" d="M0.13,103.43h-0.16c-0.23,0.4-0.6,0.75-1.09,1.03c-0.49,0.29-1.1,0.43-1.83,0.43c-0.61,0-1.19-0.13-1.74-0.38
			c-0.55-0.25-1.04-0.6-1.46-1.05s-0.76-0.98-1-1.61s-0.37-1.31-0.37-2.05c0-0.74,0.12-1.42,0.37-2.05c0.25-0.62,0.58-1.16,1-1.61
			s0.91-0.8,1.46-1.05c0.55-0.25,1.13-0.38,1.74-0.38c0.73,0,1.34,0.14,1.83,0.43c0.49,0.29,0.86,0.63,1.09,1.03h0.16l-0.16-1.37
			v-4.19h2.55v13.96h-2.4V103.43z M-2.42,102.53c0.34,0,0.66-0.06,0.96-0.19c0.31-0.12,0.58-0.3,0.81-0.54
			c0.23-0.23,0.42-0.52,0.57-0.86c0.14-0.34,0.21-0.72,0.21-1.15s-0.07-0.81-0.21-1.15c-0.14-0.34-0.33-0.62-0.57-0.86
			c-0.23-0.23-0.5-0.41-0.81-0.54c-0.31-0.12-0.63-0.18-0.96-0.18s-0.66,0.07-0.96,0.19c-0.31,0.13-0.58,0.31-0.81,0.55
			c-0.23,0.23-0.42,0.52-0.56,0.86c-0.14,0.34-0.21,0.71-0.21,1.13c0,0.42,0.07,0.79,0.21,1.13c0.14,0.34,0.33,0.62,0.56,0.86
			c0.23,0.23,0.5,0.42,0.81,0.55C-3.08,102.47-2.76,102.53-2.42,102.53z"/>
	</g>
</g>
<rect class="st1" width="18.28" height="18.28"/>
<rect x="-29.64" y="33.81" class="st1" width="88.32" height="4.13"/>
<g>
	<g>
		<path class="st0" d="M1.68,7.61h1.35v0.7h0.09c0.17-0.26,0.4-0.47,0.68-0.64c0.29-0.16,0.61-0.24,0.96-0.24
			c0.41,0,0.75,0.09,1.03,0.28c0.28,0.19,0.47,0.42,0.59,0.7c0.17-0.27,0.41-0.5,0.71-0.7C7.4,7.53,7.78,7.43,8.22,7.43
			c0.33,0,0.61,0.05,0.85,0.16c0.24,0.11,0.44,0.25,0.6,0.44c0.16,0.19,0.28,0.42,0.36,0.68c0.08,0.27,0.12,0.56,0.12,0.87v3.39
			H8.71V9.85c0-0.73-0.3-1.1-0.9-1.1c-0.19,0-0.36,0.04-0.5,0.13c-0.15,0.08-0.27,0.2-0.37,0.34c-0.1,0.14-0.18,0.31-0.23,0.51
			c-0.05,0.2-0.08,0.41-0.08,0.64v2.61H5.19V9.85c0-0.73-0.31-1.1-0.94-1.1c-0.18,0-0.34,0.04-0.48,0.13
			c-0.14,0.08-0.26,0.2-0.35,0.34C3.32,9.37,3.25,9.54,3.2,9.73c-0.05,0.2-0.08,0.41-0.08,0.64v2.61H1.68V7.61z"/>
		<path class="st0" d="M11.33,5.13h1.44v2.36l-0.09,0.77h0.09c0.13-0.23,0.34-0.42,0.61-0.58c0.28-0.16,0.62-0.24,1.03-0.24
			c0.34,0,0.67,0.07,0.98,0.21c0.31,0.14,0.58,0.34,0.82,0.59c0.24,0.25,0.43,0.55,0.56,0.9c0.14,0.35,0.21,0.73,0.21,1.15
			c0,0.42-0.07,0.8-0.21,1.15c-0.14,0.35-0.33,0.65-0.56,0.9c-0.24,0.25-0.51,0.45-0.82,0.59c-0.31,0.14-0.64,0.21-0.98,0.21
			c-0.41,0-0.75-0.08-1.03-0.24c-0.28-0.16-0.48-0.35-0.61-0.58h-0.09v0.65h-1.35V5.13z M14.11,11.83c0.19,0,0.37-0.04,0.54-0.11
			c0.17-0.07,0.32-0.18,0.45-0.31c0.13-0.13,0.24-0.29,0.32-0.48c0.08-0.19,0.12-0.4,0.12-0.64c0-0.23-0.04-0.45-0.12-0.64
			s-0.19-0.35-0.32-0.48c-0.13-0.13-0.28-0.23-0.45-0.31c-0.17-0.07-0.35-0.11-0.54-0.11c-0.19,0-0.37,0.03-0.54,0.1
			c-0.17,0.07-0.32,0.17-0.45,0.3s-0.24,0.29-0.32,0.48c-0.08,0.19-0.12,0.41-0.12,0.65c0,0.24,0.04,0.46,0.12,0.65
			c0.08,0.19,0.19,0.35,0.32,0.48s0.28,0.23,0.45,0.3C13.74,11.79,13.92,11.83,14.11,11.83z"/>
	</g>
</g>
</svg>
