<?xml version="1.0" encoding="utf-8"?>
<!-- Generator: Adobe Illustrator 24.1.1, SVG Export Plug-In . SVG Version: 6.00 Build 0)  -->
<svg version="1.1" id="Capa_1" xmlns="http://www.w3.org/2000/svg" xmlns:xlink="http://www.w3.org/1999/xlink" x="0px" y="0px"
	 viewBox="0 0 200 200" style="enable-background:new 0 0 200 200;" xml:space="preserve">
<style type="text/css">
	.st0{fill:#FF80CC;}
	.st1{fill:#DD6BB4;}
	.st2{fill:#3ECAED;}
	.st3{fill:#2C96A8;}
	.st4{fill:#FFEF5A;}
	.st5{fill:#FFFFFF;}
	.st6{fill:#FFF171;}
	.st7{fill:#FFC0EC;}
	.st8{fill:none;stroke:#000000;stroke-width:1.687;stroke-miterlimit:10;}
</style>
<path class="st0" d="M93,35.93c0,0,21.71,18.43,21.47,51.32s25.04,48.89,25.04,48.89l-69.3,31.99c0,0-27.27-27.57-26.01-61.35
	c1.22-32.92-16.31-56.16-16.31-56.16L93,35.93z"/>
<path class="st1" d="M47.97,46.08l18.33-4.13l28.64-4.16c5.32,5.44,19.72,22.64,19.52,49.45c-0.15,20.5,9.62,34.44,17,42.03
	c-5.86,1.72-12.04,3.72-16.61,5.69c-15.06,6.51-33.23,20.68-33.23,20.68C32.42,128.09,45.53,57.34,47.97,46.08z"/>
<g>
	<path class="st2" d="M119.89,38.16l-66.78,9.7c0,0-20.23,81.11,33.32,111.09c0,0,18.17-14.18,33.23-20.68
		c11.8-5.1,34.4-10.41,34.4-10.41S112.36,90.89,119.89,38.16z"/>
</g>
<path class="st3" d="M115.15,78.84v2.61L61.3,103.9l-0.53-3.8L115.15,78.84z"/>
<path class="st3" d="M115.15,90.09v2.61l-51.32,21.21l-1.11-3.57L115.15,90.09z"/>
<path class="st3" d="M91.27,109.7l1.78,2.77L68,122.54l-1.14-3.55L91.27,109.7z"/>
<path class="st0" d="M148.54,52.42c0,0,16.05-14,25.21-0.79s-6.28,24.36-6.28,24.36L148.54,52.42z"/>
<polygon class="st4" points="167.48,75.98 112.36,109.48 100.94,92.46 148.54,52.42 "/>
<polygon class="st5" points="112.36,109.48 100.9,92.49 88.93,111.73 "/>
<polygon points="98.01,110.86 88.93,111.73 94.35,103.04 "/>
<rect x="131.38" y="57.8" transform="matrix(0.7651 -0.6439 0.6439 0.7651 -4.6353 104.6442)" width="19.44" height="1.74"/>
<rect x="130.07" y="78.82" transform="matrix(0.8207 -0.5713 0.5713 0.8207 -19.4298 97.4601)" width="31.04" height="1.74"/>
<rect x="108.11" y="83.63" transform="matrix(0.8113 -0.5846 0.5846 0.8113 -26.1103 88.1109)" width="30.66" height="1.74"/>
<path d="M177.09,63.83l-1.71-0.32c2.37-12.59-8.31-16.13-8.77-16.27l0.52-1.66C167.26,45.61,179.75,49.7,177.09,63.83z"/>
<rect x="160.27" y="57.99" transform="matrix(0.7795 -0.6264 0.6264 0.7795 -7.1265 115.9558)" width="1.74" height="20.22"/>
<polygon class="st3" points="112.2,63.78 112.2,66.47 58.82,81.95 59.44,78.34 "/>
<polygon class="st3" points="112.2,55.65 112.2,58.34 58.38,71.43 59,67.81 "/>
<polygon class="st3" points="112.64,72.71 112.64,75.62 58.94,92.05 58.7,88.13 "/>
<path d="M86.95,159.54l-1.14-1.25c12.26-11.18,36.6-21.83,36.84-21.94l0.67,1.55C123.09,138.01,99.01,148.55,86.95,159.54z"/>
<path d="M53.12,116.96c-5.15-13.25-4.38-42.86-4.34-44.12l1.74,0.05c-0.01,0.3-0.8,30.52,4.23,43.44L53.12,116.96z"/>
<path d="M58.81,155.02c-10.71-16.49-13.13-28.21-13.23-28.7l1.71-0.34c0.02,0.12,2.47,11.9,12.98,28.09L58.81,155.02z"/>
<rect x="61.44" y="40.24" transform="matrix(0.9755 -0.22 0.22 0.9755 -7.3186 16.4389)" width="17.42" height="1.69"/>
</svg>
