<?xml version="1.0" encoding="utf-8"?>
<!-- Generator: Adobe Illustrator 24.1.1, SVG Export Plug-In . SVG Version: 6.00 Build 0)  -->
<svg version="1.1" id="Capa_1" xmlns="http://www.w3.org/2000/svg" xmlns:xlink="http://www.w3.org/1999/xlink" x="0px" y="0px"
	 viewBox="0 0 200 200" style="enable-background:new 0 0 200 200;" xml:space="preserve">
<style type="text/css">
	.st0{fill:#3ECAED;}
	.st1{fill:#FFEF5A;}
	.st2{fill:#FF80CC;}
</style>
<path class="st0" d="M100.35,39.09L68.63,146.03c-0.89,3,0.85,6.14,3.87,7l54.54,15.56c2.92,0.83,5.99-0.77,6.94-3.64L170.86,54.6
	c1.07-3.2-0.91-6.61-4.24-7.29l-59.7-12.16C104.04,34.58,101.18,36.28,100.35,39.09z"/>
<polygon class="st1" points="71.74,135.54 137.53,154.37 166.43,67.88 96.93,50.36 "/>
<path d="M98.15,156.86c-2.35,0-4.26-1.9-4.26-4.24s1.91-4.24,4.26-4.24s4.26,1.9,4.26,4.24h-1.43c0-1.55-1.27-2.81-2.83-2.81
	s-2.83,1.26-2.83,2.81s1.27,2.81,2.83,2.81c0.26,0,0.52-0.04,0.76-0.1l0.38,1.38C98.93,156.81,98.54,156.86,98.15,156.86z"/>
<rect x="133.54" y="85.63" transform="matrix(0.3173 -0.9483 0.9483 0.3173 27.3773 210.9793)" width="53.37" height="1.69"/>
<path d="M87.65,158.24l-15.38-4.39c-4.44-1.27-4.86-5.76-4.47-7.96l8.68-29.29l1.62,0.48l-8.66,29.19
	c-0.01,0.11-0.78,4.79,3.29,5.95l15.38,4.39L87.65,158.24z"/>
<rect x="132.93" y="41.88" transform="matrix(0.2435 -0.9699 0.9699 0.2435 52.1928 167.9813)" width="1.69" height="17.3"/>
<path class="st2" d="M40.24,77.92c0,0,18.69-41.94,60.57-17.8l1.3-7.49l13.09,25.29l-21.01-1.63l3.96-5.62
	c0,0-33.69-24.19-55.12,9.1L40.24,77.92z"/>
<path class="st2" d="M115.2,98.16c0,0-18.69,41.94-60.57,17.8l-1.3,7.49L40.24,98.16l21.01,1.63l-3.96,5.62
	c0,0,33.69,24.19,55.12-9.1L115.2,98.16z"/>
<path d="M97.67,71.37C83.1,61.36,69.59,59.83,57.51,66.81l-0.84-1.46c8.72-5.04,23.09-8.34,41.96,4.63L97.67,71.37z"/>
<rect x="44.23" y="96.99" transform="matrix(0.8881 -0.4596 0.4596 0.8881 -44.3687 32.7433)" width="1.69" height="21.03"/>
<path d="M99.73,44.15l-1.61-0.5l1.71-5.56l0,0c0,0,1.17-4.83,7.24-3.76L106.78,36c-4.38-0.77-5.24,2.2-5.32,2.54L99.73,44.15z"/>
</svg>
