<?xml version="1.0" encoding="utf-8"?>
<!-- Generator: Adobe Illustrator 24.1.1, SVG Export Plug-In . SVG Version: 6.00 Build 0)  -->
<svg version="1.1" id="Capa_1" xmlns="http://www.w3.org/2000/svg" xmlns:xlink="http://www.w3.org/1999/xlink" x="0px" y="0px"
	 viewBox="0 0 178.53 37.85" style="enable-background:new 0 0 178.53 37.85;" xml:space="preserve">
<style type="text/css">
	.st0{fill:#FFEC00;}
	.st1{fill:#3ECAED;}
	.st2{fill:#FF80CC;}
	.st3{fill:#1D1D1B;}
	.st4{fill:#47AAF4;}
</style>
<rect x="0" class="st0" width="161.27" height="37.85"/>
<polygon points="168.67,9.01 167.26,10.43 174.76,17.93 149.55,17.93 149.55,19.93 174.65,19.93 167.15,27.43 168.57,28.84 
	178.53,18.87 "/>
<g>
	<path d="M16.82,17.88c0,0.71-0.62,1.33-1.39,1.33c-0.74,0-1.33-0.63-1.33-1.33c0-0.76,0.6-1.39,1.33-1.39
		C16.2,16.49,16.82,17.12,16.82,17.88z M16.65,26.97h-2.47l0.5-6.67h1.48L16.65,26.97z"/>
	<path d="M18.48,19.26c0-2.89,2.52-5.32,5.47-5.32c1.56,0,3,0.66,4,1.72l-1.61,1.44c-0.6-0.69-1.45-1.16-2.4-1.16
		c-1.72,0-3.2,1.53-3.2,3.31c0,1.8,1.47,3.33,3.2,3.33c0.95,0,1.8-0.46,2.4-1.16l1.61,1.44c-1,1.05-2.45,1.72-4,1.72
		C21,24.6,18.48,22.16,18.48,19.26z"/>
	<path d="M28.78,20.54c0-2.21,1.93-4.05,4.24-4.05c2.29,0,4.21,1.84,4.21,4.05s-1.92,4.06-4.21,4.06
		C30.71,24.6,28.78,22.74,28.78,20.54z M35.15,20.54c0-1.2-0.97-2.21-2.13-2.21c-1.17,0-2.14,1-2.14,2.21s0.97,2.22,2.14,2.22
		C34.18,22.76,35.15,21.74,35.15,20.54z"/>
	<path d="M46.29,19.49v4.93h-2.11v-4.47c0-0.96-0.6-1.62-1.47-1.62c-0.92,0-1.62,0.66-1.62,1.5l-0.02-0.04v4.63h-2.19v-7.75h2.19
		v0.98c0.47-0.71,1.33-1.16,2.34-1.16C45.09,16.49,46.29,17.73,46.29,19.49z"/>
	<path d="M52.8,23.93c-0.45,0.41-1.15,0.67-1.78,0.67c-1.37,0-2.33-0.97-2.33-2.37v-3.79h-1.07v-1.77h1.07v-2.13h2.1v2.13h1.68v1.77
		h-1.68v3.45c0,0.51,0.33,0.87,0.74,0.87c0.3,0,0.6-0.1,0.75-0.25L52.8,23.93z"/>
	<path d="M61.05,19.79v4.63h-2.12v-0.78c-0.55,0.63-1.44,0.96-2.28,0.96c-1.65,0-2.92-0.99-2.92-2.47c0-1.53,1.42-2.58,3.22-2.58
		c0.63,0,1.32,0.13,1.98,0.39v-0.15c0-0.83-0.51-1.54-1.79-1.54c-0.72,0-1.39,0.24-2.01,0.55l-0.74-1.46
		c1.1-0.55,2.16-0.85,3.24-0.85C59.67,16.49,61.05,17.76,61.05,19.79z M58.94,21.98v-0.72c-0.5-0.18-1.07-0.29-1.67-0.29
		c-0.79,0-1.42,0.46-1.42,1.1c0,0.63,0.55,1.02,1.3,1.02C57.99,23.09,58.79,22.7,58.94,21.98z"/>
	<path d="M62.62,20.54c0-2.21,1.95-4.05,4.24-4.05c1.26,0,2.29,0.51,3.04,1.32l-1.46,1.24c-0.39-0.43-1-0.72-1.6-0.72
		c-1.14,0-2.1,1-2.1,2.19c0,1.21,0.96,2.23,2.11,2.23c0.6,0,1.23-0.3,1.63-0.75l1.46,1.23c-0.76,0.84-1.81,1.36-3.1,1.36
		C64.55,24.6,62.62,22.74,62.62,20.54z"/>
	<path d="M76.13,23.93c-0.45,0.41-1.15,0.67-1.78,0.67c-1.37,0-2.33-0.97-2.33-2.37v-3.79h-1.07v-1.77h1.07v-2.13h2.1v2.13h1.68
		v1.77h-1.68v3.45c0,0.51,0.33,0.87,0.74,0.87c0.3,0,0.6-0.1,0.75-0.25L76.13,23.93z"/>
	<path d="M84.39,19.79v4.63h-2.12v-0.78c-0.55,0.63-1.44,0.96-2.28,0.96c-1.65,0-2.92-0.99-2.92-2.47c0-1.53,1.42-2.58,3.22-2.58
		c0.63,0,1.32,0.13,1.98,0.39v-0.15c0-0.83-0.51-1.54-1.79-1.54c-0.72,0-1.39,0.24-2.01,0.55l-0.74-1.46
		c1.1-0.55,2.16-0.85,3.24-0.85C83.01,16.49,84.39,17.76,84.39,19.79z M82.27,21.98v-0.72c-0.5-0.18-1.07-0.29-1.67-0.29
		c-0.79,0-1.42,0.46-1.42,1.1c0,0.63,0.55,1.02,1.3,1.02C81.33,23.09,82.12,22.7,82.27,21.98z"/>
	<path d="M91.3,16.49v1.84c-1.62,0-2.66,0.93-2.66,2.38v3.71h-2.19v-7.75h2.19v1.44C89.15,17.1,90.11,16.49,91.3,16.49z"/>
	<path d="M103.91,19.79v4.63h-2.12v-0.78c-0.55,0.63-1.44,0.96-2.28,0.96c-1.65,0-2.92-0.99-2.92-2.47c0-1.53,1.42-2.58,3.22-2.58
		c0.63,0,1.32,0.13,1.98,0.39v-0.15c0-0.83-0.51-1.54-1.79-1.54c-0.72,0-1.39,0.24-2.01,0.55l-0.74-1.46
		c1.1-0.55,2.16-0.85,3.24-0.85C102.53,16.49,103.91,17.76,103.91,19.79z M101.8,21.98v-0.72c-0.5-0.18-1.07-0.29-1.67-0.29
		c-0.79,0-1.42,0.46-1.42,1.1c0,0.63,0.55,1.02,1.3,1.02C100.85,23.09,101.65,22.7,101.8,21.98z"/>
	<path d="M113.36,19.49v4.93h-2.11v-4.47c0-0.96-0.6-1.62-1.47-1.62c-0.92,0-1.62,0.66-1.62,1.5v4.59h-2.19V13.94h2.19v3.67
		c0.48-0.67,1.33-1.13,2.32-1.13C112.16,16.49,113.36,17.73,113.36,19.49z"/>
	<path d="M114.93,20.54c0-2.21,1.93-4.05,4.24-4.05c2.29,0,4.21,1.84,4.21,4.05s-1.92,4.06-4.21,4.06
		C116.86,24.6,114.93,22.74,114.93,20.54z M121.3,20.54c0-1.2-0.97-2.21-2.13-2.21c-1.17,0-2.14,1-2.14,2.21s0.97,2.22,2.14,2.22
		C120.33,22.76,121.3,21.74,121.3,20.54z"/>
	<path d="M129.9,16.49v1.84c-1.62,0-2.66,0.93-2.66,2.38v3.71h-2.19v-7.75h2.19v1.44C127.75,17.1,128.71,16.49,129.9,16.49z"/>
	<path d="M137.93,19.79v4.63h-2.12v-0.78c-0.55,0.63-1.44,0.96-2.28,0.96c-1.65,0-2.92-0.99-2.92-2.47c0-1.53,1.42-2.58,3.22-2.58
		c0.63,0,1.32,0.13,1.98,0.39v-0.15c0-0.83-0.51-1.54-1.79-1.54c-0.72,0-1.39,0.24-2.01,0.55l-0.74-1.46
		c1.1-0.55,2.16-0.85,3.24-0.85C136.55,16.49,137.93,17.76,137.93,19.79z M135.82,21.98v-0.72c-0.5-0.18-1.07-0.29-1.67-0.29
		c-0.79,0-1.42,0.46-1.42,1.1c0,0.63,0.55,1.02,1.3,1.02C134.87,23.09,135.67,22.7,135.82,21.98z"/>
	<path d="M139.88,23.21c0-0.71,0.62-1.33,1.4-1.33c0.73,0,1.33,0.63,1.33,1.33c0,0.76-0.6,1.39-1.33,1.39
		C140.5,24.6,139.88,23.97,139.88,23.21z M140.05,14.12h2.48l-0.5,6.67h-1.49L140.05,14.12z"/>
</g>
</svg>
