<?xml version="1.0" encoding="utf-8"?>
<!-- Generator: Adobe Illustrator 24.1.1, SVG Export Plug-In . SVG Version: 6.00 Build 0)  -->
<svg version="1.1" id="Capa_1" xmlns="http://www.w3.org/2000/svg" xmlns:xlink="http://www.w3.org/1999/xlink" x="0px" y="0px"
	 viewBox="0 0 99.31 15.93" style="enable-background:new 0 0 99.31 15.93;" xml:space="preserve">
<style type="text/css">
	.st0{fill:#FFEC00;}
	.st1{fill:#3ECAED;}
	.st2{fill:#FF80CC;}
	.st3{fill:#1D1D1B;}
	.st4{fill:#47AAF4;}
</style>
<g>
	<g>
		<path class="st3" d="M6.5,10.2v1.15h-5.7v-8.4h1.25v7.25H6.5z"/>
		<path class="st3" d="M9.96,4.1v2.4h4.45v1.15H9.96v2.55h4.93v1.15H8.72v-8.4h6.17V4.1H9.96z"/>
		<path class="st3" d="M18.6,4.1v2.4h4.45v1.15H18.6v2.55h4.93v1.15h-6.17v-8.4h6.17V4.1H18.6z"/>
		<path class="st3" d="M30.5,8.31l2.14,3.04h-1.42l-2.05-2.92h-1.93v2.92H26v-8.4h3.53c1.77,0,3.12,1.14,3.12,2.74
			C32.65,6.99,31.77,7.98,30.5,8.31z M27.24,7.28h2.13c1.21,0,2.03-0.6,2.03-1.59S30.57,4.1,29.36,4.1h-2.13V7.28z"/>
		<path class="st3" d="M39.53,2.95h1.23l2.95,5.49l2.95-5.49h1.24v8.4h-1.24V5.37l-2.95,5.49l-2.95-5.49v5.98h-1.23V2.95z"/>
		<path class="st3" d="M56.67,9.64h-4.38l-0.73,1.71h-1.37l3.61-8.4h1.37l3.61,8.4H57.4L56.67,9.64z M56.19,8.53l-1.71-3.98
			l-1.71,3.98H56.19z M54.9,2.23h-0.88l1.45-1.81l1.19,0.24L54.9,2.23z"/>
		<path class="st3" d="M60.47,10.14l0.75-0.92c0.75,0.71,1.63,1.17,2.76,1.17c1.16,0,1.76-0.61,1.76-1.28c0-0.79-0.7-1.1-2.1-1.42
			c-1.71-0.4-2.85-0.92-2.85-2.43c0-1.41,1.22-2.47,2.91-2.47c1.29,0,2.26,0.48,3.07,1.19l-0.71,0.93
			c-0.71-0.65-1.55-1.03-2.41-1.03c-0.94,0-1.6,0.6-1.6,1.27c0,0.78,0.72,1.05,2.1,1.38c1.67,0.39,2.83,0.95,2.83,2.46
			c0,1.42-1.08,2.49-3.05,2.49C62.53,11.49,61.37,11,60.47,10.14z"/>
	</g>
</g>
<polygon class="st4" points="91.27,-0.02 90.12,1.13 96.23,7.25 75.69,7.25 75.69,8.88 96.15,8.88 90.03,14.99 91.19,16.14 
	99.31,8.02 "/>
</svg>
