<?xml version="1.0" encoding="utf-8"?>
<!-- Generator: Adobe Illustrator 24.1.1, SVG Export Plug-In . SVG Version: 6.00 Build 0)  -->
<svg version="1.1" id="Capa_1" xmlns="http://www.w3.org/2000/svg" xmlns:xlink="http://www.w3.org/1999/xlink" x="0px" y="0px"
	 viewBox="0 0 99.36 143.83" style="enable-background:new 0 0 99.36 143.83;" xml:space="preserve">
<style type="text/css">
	.st0{fill:#FFEC00;}
	.st1{fill:#3ECAED;}
	.st2{fill:#FF80CC;}
	.st3{fill:#1D1D1B;}
	.st4{fill:#47AAF4;}
</style>
<path class="st2" d="M99.32,51.43c0.02-0.58,0.04-1.17,0.04-1.75C99.36,22.24,77.12,0,49.68,0C22.24,0,0,22.24,0,49.68
	c0,0.59,0.02,1.17,0.04,1.75H0.03c0,0-1.83,40.08,49.65,92.4c51.48-52.32,49.65-92.4,49.65-92.4H99.32z M49.68,86.04
	c-20.08,0-36.36-16.28-36.36-36.36c0-20.08,16.28-36.36,36.36-36.36S86.04,29.6,86.04,49.68C86.04,69.76,69.76,86.04,49.68,86.04z"
	/>
</svg>
