<?xml version="1.0" encoding="utf-8"?>
<!-- Generator: Adobe Illustrator 24.1.1, SVG Export Plug-In . SVG Version: 6.00 Build 0)  -->
<svg version="1.1" id="Capa_1" xmlns="http://www.w3.org/2000/svg" xmlns:xlink="http://www.w3.org/1999/xlink" x="0px" y="0px"
	 viewBox="0 0 608.53 250.21" style="enable-background:new 0 0 608.53 250.21;" xml:space="preserve">
<style type="text/css">
	.st0{fill:#FFEC00;}
	.st1{fill:#3ECAED;}
	.st2{fill:#FF80CC;}
	.st3{fill:#1D1D1B;}
	.st4{fill:#47AAF4;}
	.st5{fill:#FFFFFF;}
	.st6{fill:url(#SVGID_1_);}
</style>
<rect x="-399.65" y="-41.34" class="st0" width="161.27" height="37.85"/>
<polygon points="-230.97,-32.33 -232.39,-30.92 -224.89,-23.42 -250.1,-23.42 -250.1,-21.42 -224.99,-21.42 -232.49,-13.92 
	-231.08,-12.5 -221.11,-22.47 "/>
<rect x="-447.17" y="-153.24" class="st1" width="175.06" height="37.85"/>
<g>
	<path d="M-430.39-135.53c0,0.71-0.62,1.33-1.39,1.33c-0.74,0-1.33-0.63-1.33-1.33c0-0.76,0.6-1.39,1.33-1.39
		C-431-136.93-430.39-136.3-430.39-135.53z M-430.55-126.44h-2.47l0.5-6.67h1.48L-430.55-126.44z"/>
	<path d="M-418.75-131.14l0.96,0.84l-1.13,1.3l-1.05-0.92c-0.92,0.69-2.06,1.09-3.29,1.09c-2.96,0-5.47-2.44-5.47-5.34
		c0-2.89,2.52-5.32,5.47-5.32c2.98,0,5.47,2.43,5.47,5.32C-417.78-133.04-418.14-132.01-418.75-131.14z M-421.6-131.32l-1.2-1.05
		l1.13-1.3l1.24,1.08c0.26-0.46,0.39-1,0.39-1.56c0-1.78-1.47-3.31-3.21-3.31c-1.72,0-3.2,1.53-3.2,3.31c0,1.8,1.47,3.33,3.2,3.33
		C-422.65-130.82-422.08-131-421.6-131.32z"/>
	<path d="M-408.48-136.75v7.75h-2.19v-0.97c-0.46,0.71-1.33,1.15-2.34,1.15c-1.68,0-2.88-1.25-2.88-3v-4.93h2.12v4.47
		c0,0.96,0.6,1.62,1.47,1.62c0.92,0,1.62-0.66,1.62-1.5l0.01,0.04v-4.63H-408.48z"/>
	<path d="M-406.48-139.01c0-0.62,0.53-1.17,1.2-1.17c0.65,0,1.17,0.55,1.17,1.17c0,0.66-0.52,1.2-1.17,1.2
		C-405.95-137.81-406.48-138.35-406.48-139.01z M-406.38-136.75h2.19v7.75h-2.19V-136.75z"/>
	<path d="M-396.69-131.44l1.4,1.43c-0.69,0.72-2.03,1.2-3.17,1.2c-2.31,0-4.11-1.69-4.11-4.08c0-2.34,1.72-4.04,3.99-4.04
		c2.43,0,3.86,1.84,3.86,4.77h-5.6c0.26,0.84,0.93,1.41,1.85,1.41C-397.86-130.75-397.11-131.03-396.69-131.44z M-400.29-133.73
		h3.46c-0.21-0.76-0.78-1.26-1.67-1.26C-399.31-134.99-400-134.51-400.29-133.73z"/>
	<path d="M-388.22-136.93v1.84c-1.62,0-2.66,0.93-2.66,2.38v3.71h-2.19v-7.75h2.19v1.44C-390.36-136.31-389.4-136.93-388.22-136.93z
		"/>
	<path d="M-387.42-132.88c0-2.21,1.93-4.05,4.24-4.05c2.29,0,4.21,1.84,4.21,4.05s-1.92,4.06-4.21,4.06
		C-385.49-128.81-387.42-130.67-387.42-132.88z M-381.05-132.88c0-1.2-0.97-2.21-2.13-2.21c-1.17,0-2.14,1-2.14,2.21
		s0.97,2.22,2.14,2.22C-382.02-130.66-381.05-131.68-381.05-132.88z"/>
	<path d="M-373.58-129.98l0.95-1.51c0.69,0.5,1.56,0.87,2.59,0.87c0.58,0,1-0.24,1-0.58c0-0.48-0.57-0.63-1.37-0.84
		c-1.59-0.39-2.82-0.83-2.83-2.36c-0.01-1.47,1.2-2.52,3.03-2.52c1.11,0,2.21,0.39,3.06,0.96l-0.88,1.56
		c-0.71-0.43-1.51-0.69-2.17-0.69c-0.54,0-0.92,0.19-0.92,0.46c0,0.42,0.31,0.54,1.37,0.83c1.33,0.34,2.82,0.79,2.82,2.49
		c0,1.53-1.25,2.5-3.15,2.5C-371.33-128.81-372.65-129.23-373.58-129.98z"/>
	<path d="M-358.45-133.63v4.63h-2.12v-0.78c-0.55,0.63-1.44,0.96-2.28,0.96c-1.65,0-2.92-0.99-2.92-2.47c0-1.53,1.42-2.58,3.22-2.58
		c0.63,0,1.32,0.13,1.98,0.39v-0.15c0-0.83-0.51-1.54-1.79-1.54c-0.72,0-1.39,0.24-2.01,0.55l-0.74-1.46
		c1.1-0.55,2.16-0.85,3.24-0.85C-359.83-136.93-358.45-135.65-358.45-133.63z M-360.56-131.44v-0.72c-0.5-0.18-1.07-0.29-1.67-0.29
		c-0.79,0-1.42,0.46-1.42,1.1c0,0.63,0.55,1.02,1.3,1.02C-361.51-130.33-360.72-130.72-360.56-131.44z"/>
	<path d="M-348.03-132.88c0,2.38-1.5,4.06-3.57,4.06c-1.08,0-1.98-0.46-2.6-1.27v1.09h-2.19v-10.48h2.19v3.81
		c0.62-0.79,1.52-1.26,2.6-1.26C-349.53-136.93-348.03-135.25-348.03-132.88z M-350.16-132.88c0-1.29-0.85-2.21-2.07-2.21
		c-1.07,0-1.85,0.78-1.97,1.91v0.6c0.12,1.14,0.9,1.92,1.97,1.92C-351.01-130.66-350.16-131.57-350.16-132.88z"/>
	<path d="M-340.86-131.44l1.4,1.43c-0.69,0.72-2.03,1.2-3.17,1.2c-2.31,0-4.11-1.69-4.11-4.08c0-2.34,1.72-4.04,3.99-4.04
		c2.43,0,3.86,1.84,3.86,4.77h-5.6c0.26,0.84,0.93,1.41,1.85,1.41C-342.03-130.75-341.28-131.03-340.86-131.44z M-344.46-133.73
		h3.46c-0.21-0.76-0.78-1.26-1.67-1.26C-343.48-134.99-344.17-134.51-344.46-133.73z"/>
	<path d="M-332.39-136.93v1.84c-1.62,0-2.66,0.93-2.66,2.38v3.71h-2.19v-7.75h2.19v1.44C-334.53-136.31-333.57-136.93-332.39-136.93
		z"/>
	<path d="M-314.55-133.93v4.95h-2.1v-4.57c0-0.9-0.57-1.53-1.38-1.53c-0.87,0-1.5,0.58-1.5,1.41v4.69h-2.1v-4.57
		c0-0.9-0.57-1.53-1.37-1.53c-0.88,0-1.5,0.58-1.5,1.41v4.68h-2.19v-7.75h2.19v1.02c0.38-0.74,1.14-1.2,2.1-1.2
		c1.06,0,1.98,0.54,2.46,1.41c0.4-0.86,1.36-1.41,2.52-1.41C-315.8-136.93-314.55-135.68-314.55-133.93z"/>
	<path d="M-305.69-133.63v4.63h-2.12v-0.78c-0.55,0.63-1.44,0.96-2.28,0.96c-1.65,0-2.92-0.99-2.92-2.47c0-1.53,1.42-2.58,3.22-2.58
		c0.63,0,1.32,0.13,1.98,0.39v-0.15c0-0.83-0.51-1.54-1.79-1.54c-0.72,0-1.39,0.24-2.01,0.55l-0.74-1.46
		c1.1-0.55,2.16-0.85,3.24-0.85C-307.07-136.93-305.69-135.65-305.69-133.63z M-307.8-131.44v-0.72c-0.5-0.18-1.07-0.29-1.67-0.29
		c-0.79,0-1.42,0.46-1.42,1.1c0,0.63,0.55,1.02,1.3,1.02C-308.75-130.33-307.95-130.72-307.8-131.44z M-309.08-137.62h-1.48
		l1.74-2.34l1.97,0.36L-309.08-137.62z"/>
	<path d="M-304.26-129.98l0.95-1.51c0.69,0.5,1.56,0.87,2.59,0.87c0.58,0,1-0.24,1-0.58c0-0.48-0.57-0.63-1.37-0.84
		c-1.59-0.39-2.82-0.83-2.83-2.36c-0.01-1.47,1.2-2.52,3.03-2.52c1.11,0,2.21,0.39,3.06,0.96l-0.88,1.56
		c-0.71-0.43-1.51-0.69-2.17-0.69c-0.54,0-0.92,0.19-0.92,0.46c0,0.42,0.31,0.54,1.37,0.83c1.33,0.34,2.82,0.79,2.82,2.49
		c0,1.53-1.25,2.5-3.15,2.5C-302.01-128.81-303.33-129.23-304.26-129.98z"/>
	<path d="M-296.08-130.21c0-0.71,0.62-1.33,1.4-1.33c0.73,0,1.33,0.63,1.33,1.33c0,0.76-0.6,1.39-1.33,1.39
		C-295.46-128.81-296.08-129.44-296.08-130.21z M-295.91-139.3h2.48l-0.5,6.67h-1.49L-295.91-139.3z"/>
</g>
<polygon points="-266.77,-144.22 -268.19,-142.81 -260.69,-135.31 -285.89,-135.31 -285.89,-133.31 -260.79,-133.31 
	-268.29,-125.81 -266.88,-124.4 -256.91,-134.36 "/>
<rect x="-447.17" y="-195.78" class="st0" width="175.06" height="37.85"/>
<g>
	<path d="M-430.39-178.08c0,0.71-0.62,1.33-1.39,1.33c-0.74,0-1.33-0.63-1.33-1.33c0-0.76,0.6-1.39,1.33-1.39
		C-431-179.47-430.39-178.84-430.39-178.08z M-430.55-168.99h-2.47l0.5-6.67h1.48L-430.55-168.99z"/>
	<path d="M-418.75-173.68l0.96,0.84l-1.13,1.3l-1.05-0.92c-0.92,0.69-2.06,1.09-3.29,1.09c-2.96,0-5.47-2.44-5.47-5.34
		c0-2.89,2.52-5.32,5.47-5.32c2.98,0,5.47,2.43,5.47,5.32C-417.78-175.59-418.14-174.55-418.75-173.68z M-421.6-173.86l-1.2-1.05
		l1.13-1.3l1.24,1.08c0.26-0.46,0.39-1,0.39-1.56c0-1.78-1.47-3.31-3.21-3.31c-1.72,0-3.2,1.53-3.2,3.31c0,1.8,1.47,3.33,3.2,3.33
		C-422.65-173.37-422.08-173.55-421.6-173.86z"/>
	<path d="M-408.48-179.29v7.75h-2.19v-0.97c-0.46,0.71-1.33,1.15-2.34,1.15c-1.68,0-2.88-1.25-2.88-3v-4.93h2.12v4.47
		c0,0.96,0.6,1.62,1.47,1.62c0.92,0,1.62-0.66,1.62-1.5l0.01,0.04v-4.63H-408.48z"/>
	<path d="M-406.48-181.56c0-0.62,0.53-1.17,1.2-1.17c0.65,0,1.17,0.55,1.17,1.17c0,0.66-0.52,1.2-1.17,1.2
		C-405.95-180.36-406.48-180.9-406.48-181.56z M-406.38-179.29h2.19v7.75h-2.19V-179.29z"/>
	<path d="M-396.69-173.98l1.4,1.43c-0.69,0.72-2.03,1.2-3.17,1.2c-2.31,0-4.11-1.69-4.11-4.08c0-2.34,1.72-4.04,3.99-4.04
		c2.43,0,3.86,1.84,3.86,4.77h-5.6c0.26,0.84,0.93,1.41,1.85,1.41C-397.86-173.29-397.11-173.58-396.69-173.98z M-400.29-176.28
		h3.46c-0.21-0.76-0.78-1.26-1.67-1.26C-399.31-177.54-400-177.06-400.29-176.28z"/>
	<path d="M-388.22-179.47v1.84c-1.62,0-2.66,0.93-2.66,2.38v3.71h-2.19v-7.75h2.19v1.44C-390.36-178.86-389.4-179.47-388.22-179.47z
		"/>
	<path d="M-387.42-175.42c0-2.21,1.93-4.05,4.24-4.05c2.29,0,4.21,1.84,4.21,4.05s-1.92,4.06-4.21,4.06
		C-385.49-171.36-387.42-173.22-387.42-175.42z M-381.05-175.42c0-1.2-0.97-2.21-2.13-2.21c-1.17,0-2.14,1-2.14,2.21
		s0.97,2.22,2.14,2.22C-382.02-173.2-381.05-174.22-381.05-175.42z"/>
	<path d="M-373.58-172.53l0.95-1.51c0.69,0.5,1.56,0.87,2.59,0.87c0.58,0,1-0.24,1-0.58c0-0.48-0.57-0.63-1.37-0.84
		c-1.59-0.39-2.82-0.83-2.83-2.36c-0.01-1.47,1.2-2.52,3.03-2.52c1.11,0,2.21,0.39,3.06,0.96l-0.88,1.56
		c-0.71-0.43-1.51-0.69-2.17-0.69c-0.54,0-0.92,0.19-0.92,0.46c0,0.42,0.31,0.54,1.37,0.83c1.33,0.34,2.82,0.79,2.82,2.49
		c0,1.53-1.25,2.5-3.15,2.5C-371.33-171.36-372.65-171.78-373.58-172.53z"/>
	<path d="M-358.45-176.17v4.63h-2.12v-0.78c-0.55,0.63-1.44,0.96-2.28,0.96c-1.65,0-2.92-0.99-2.92-2.47c0-1.53,1.42-2.58,3.22-2.58
		c0.63,0,1.32,0.13,1.98,0.39v-0.15c0-0.83-0.51-1.54-1.79-1.54c-0.72,0-1.39,0.24-2.01,0.55l-0.74-1.46
		c1.1-0.55,2.16-0.85,3.24-0.85C-359.83-179.47-358.45-178.2-358.45-176.17z M-360.56-173.98v-0.72c-0.5-0.18-1.07-0.29-1.67-0.29
		c-0.79,0-1.42,0.46-1.42,1.1c0,0.63,0.55,1.02,1.3,1.02C-361.51-172.87-360.72-173.26-360.56-173.98z"/>
	<path d="M-348.03-175.42c0,2.38-1.5,4.06-3.57,4.06c-1.08,0-1.98-0.46-2.6-1.27v1.09h-2.19v-10.48h2.19v3.81
		c0.62-0.79,1.52-1.26,2.6-1.26C-349.53-179.47-348.03-177.79-348.03-175.42z M-350.16-175.42c0-1.29-0.85-2.21-2.07-2.21
		c-1.07,0-1.85,0.78-1.97,1.91v0.6c0.12,1.14,0.9,1.92,1.97,1.92C-351.01-173.2-350.16-174.12-350.16-175.42z"/>
	<path d="M-340.86-173.98l1.4,1.43c-0.69,0.72-2.03,1.2-3.17,1.2c-2.31,0-4.11-1.69-4.11-4.08c0-2.34,1.72-4.04,3.99-4.04
		c2.43,0,3.86,1.84,3.86,4.77h-5.6c0.26,0.84,0.93,1.41,1.85,1.41C-342.03-173.29-341.28-173.58-340.86-173.98z M-344.46-176.28
		h3.46c-0.21-0.76-0.78-1.26-1.67-1.26C-343.48-177.54-344.17-177.06-344.46-176.28z"/>
	<path d="M-332.39-179.47v1.84c-1.62,0-2.66,0.93-2.66,2.38v3.71h-2.19v-7.75h2.19v1.44C-334.53-178.86-333.57-179.47-332.39-179.47
		z"/>
	<path d="M-314.55-176.47v4.95h-2.1v-4.57c0-0.9-0.57-1.53-1.38-1.53c-0.87,0-1.5,0.58-1.5,1.41v4.69h-2.1v-4.57
		c0-0.9-0.57-1.53-1.37-1.53c-0.88,0-1.5,0.58-1.5,1.41v4.68h-2.19v-7.75h2.19v1.02c0.38-0.74,1.14-1.2,2.1-1.2
		c1.06,0,1.98,0.54,2.46,1.41c0.4-0.86,1.36-1.41,2.52-1.41C-315.8-179.47-314.55-178.23-314.55-176.47z"/>
	<path d="M-305.69-176.17v4.63h-2.12v-0.78c-0.55,0.63-1.44,0.96-2.28,0.96c-1.65,0-2.92-0.99-2.92-2.47c0-1.53,1.42-2.58,3.22-2.58
		c0.63,0,1.32,0.13,1.98,0.39v-0.15c0-0.83-0.51-1.54-1.79-1.54c-0.72,0-1.39,0.24-2.01,0.55l-0.74-1.46
		c1.1-0.55,2.16-0.85,3.24-0.85C-307.07-179.47-305.69-178.2-305.69-176.17z M-307.8-173.98v-0.72c-0.5-0.18-1.07-0.29-1.67-0.29
		c-0.79,0-1.42,0.46-1.42,1.1c0,0.63,0.55,1.02,1.3,1.02C-308.75-172.87-307.95-173.26-307.8-173.98z M-309.08-180.16h-1.48
		l1.74-2.34l1.97,0.36L-309.08-180.16z"/>
	<path d="M-304.26-172.53l0.95-1.51c0.69,0.5,1.56,0.87,2.59,0.87c0.58,0,1-0.24,1-0.58c0-0.48-0.57-0.63-1.37-0.84
		c-1.59-0.39-2.82-0.83-2.83-2.36c-0.01-1.47,1.2-2.52,3.03-2.52c1.11,0,2.21,0.39,3.06,0.96l-0.88,1.56
		c-0.71-0.43-1.51-0.69-2.17-0.69c-0.54,0-0.92,0.19-0.92,0.46c0,0.42,0.31,0.54,1.37,0.83c1.33,0.34,2.82,0.79,2.82,2.49
		c0,1.53-1.25,2.5-3.15,2.5C-302.01-171.36-303.33-171.78-304.26-172.53z"/>
	<path d="M-296.08-172.75c0-0.71,0.62-1.33,1.4-1.33c0.73,0,1.33,0.63,1.33,1.33c0,0.76-0.6,1.39-1.33,1.39
		C-295.46-171.36-296.08-171.99-296.08-172.75z M-295.91-181.84h2.48l-0.5,6.67h-1.49L-295.91-181.84z"/>
</g>
<polygon points="-266.77,-186.77 -268.19,-185.36 -260.69,-177.86 -285.89,-177.86 -285.89,-175.86 -260.79,-175.86 
	-268.29,-168.36 -266.88,-166.94 -256.91,-176.91 "/>
<rect x="-447.17" y="-110.82" class="st2" width="175.06" height="37.85"/>
<g>
	<path d="M-430.39-93.12c0,0.71-0.62,1.33-1.39,1.33c-0.74,0-1.33-0.63-1.33-1.33c0-0.76,0.6-1.39,1.33-1.39
		C-431-94.51-430.39-93.88-430.39-93.12z M-430.55-84.03h-2.47l0.5-6.67h1.48L-430.55-84.03z"/>
	<path d="M-418.75-88.72l0.96,0.84l-1.13,1.3l-1.05-0.92c-0.92,0.69-2.06,1.09-3.29,1.09c-2.96,0-5.47-2.44-5.47-5.34
		c0-2.89,2.52-5.32,5.47-5.32c2.98,0,5.47,2.43,5.47,5.32C-417.78-90.63-418.14-89.59-418.75-88.72z M-421.6-88.9l-1.2-1.05
		l1.13-1.3l1.24,1.08c0.26-0.46,0.39-1,0.39-1.56c0-1.78-1.47-3.31-3.21-3.31c-1.72,0-3.2,1.53-3.2,3.31c0,1.8,1.47,3.33,3.2,3.33
		C-422.65-88.41-422.08-88.59-421.6-88.9z"/>
	<path d="M-408.48-94.33v7.75h-2.19v-0.97c-0.46,0.71-1.33,1.15-2.34,1.15c-1.68,0-2.88-1.25-2.88-3v-4.93h2.12v4.47
		c0,0.96,0.6,1.62,1.47,1.62c0.92,0,1.62-0.66,1.62-1.5l0.01,0.04v-4.63H-408.48z"/>
	<path d="M-406.48-96.6c0-0.62,0.53-1.17,1.2-1.17c0.65,0,1.17,0.55,1.17,1.17c0,0.66-0.52,1.2-1.17,1.2
		C-405.95-95.4-406.48-95.94-406.48-96.6z M-406.38-94.33h2.19v7.75h-2.19V-94.33z"/>
	<path d="M-396.69-89.02l1.4,1.43c-0.69,0.72-2.03,1.2-3.17,1.2c-2.31,0-4.11-1.69-4.11-4.08c0-2.34,1.72-4.04,3.99-4.04
		c2.43,0,3.86,1.84,3.86,4.77h-5.6c0.26,0.84,0.93,1.41,1.85,1.41C-397.86-88.33-397.11-88.62-396.69-89.02z M-400.29-91.32h3.46
		c-0.21-0.76-0.78-1.26-1.67-1.26C-399.31-92.58-400-92.1-400.29-91.32z"/>
	<path d="M-388.22-94.51v1.84c-1.62,0-2.66,0.93-2.66,2.38v3.71h-2.19v-7.75h2.19v1.44C-390.36-93.9-389.4-94.51-388.22-94.51z"/>
	<path d="M-387.42-90.46c0-2.21,1.93-4.05,4.24-4.05c2.29,0,4.21,1.84,4.21,4.05s-1.92,4.06-4.21,4.06
		C-385.49-86.4-387.42-88.26-387.42-90.46z M-381.05-90.46c0-1.2-0.97-2.21-2.13-2.21c-1.17,0-2.14,1-2.14,2.21s0.97,2.22,2.14,2.22
		C-382.02-88.24-381.05-89.26-381.05-90.46z"/>
	<path d="M-373.58-87.57l0.95-1.51c0.69,0.5,1.56,0.87,2.59,0.87c0.58,0,1-0.24,1-0.58c0-0.48-0.57-0.63-1.37-0.84
		c-1.59-0.39-2.82-0.83-2.83-2.36c-0.01-1.47,1.2-2.52,3.03-2.52c1.11,0,2.21,0.39,3.06,0.96l-0.88,1.56
		c-0.71-0.43-1.51-0.69-2.17-0.69c-0.54,0-0.92,0.19-0.92,0.46c0,0.42,0.31,0.54,1.37,0.83c1.33,0.34,2.82,0.79,2.82,2.49
		c0,1.53-1.25,2.5-3.15,2.5C-371.33-86.4-372.65-86.82-373.58-87.57z"/>
	<path d="M-358.45-91.21v4.63h-2.12v-0.78c-0.55,0.63-1.44,0.96-2.28,0.96c-1.65,0-2.92-0.99-2.92-2.47c0-1.53,1.42-2.58,3.22-2.58
		c0.63,0,1.32,0.13,1.98,0.39v-0.15c0-0.83-0.51-1.54-1.79-1.54c-0.72,0-1.39,0.24-2.01,0.55l-0.74-1.46
		c1.1-0.55,2.16-0.85,3.24-0.85C-359.83-94.51-358.45-93.24-358.45-91.21z M-360.56-89.02v-0.72c-0.5-0.18-1.07-0.29-1.67-0.29
		c-0.79,0-1.42,0.46-1.42,1.1c0,0.63,0.55,1.02,1.3,1.02C-361.51-87.91-360.72-88.3-360.56-89.02z"/>
	<path d="M-348.03-90.46c0,2.38-1.5,4.06-3.57,4.06c-1.08,0-1.98-0.46-2.6-1.27v1.09h-2.19v-10.48h2.19v3.81
		c0.62-0.79,1.52-1.26,2.6-1.26C-349.53-94.51-348.03-92.83-348.03-90.46z M-350.16-90.46c0-1.29-0.85-2.21-2.07-2.21
		c-1.07,0-1.85,0.78-1.97,1.91v0.6c0.12,1.14,0.9,1.92,1.97,1.92C-351.01-88.24-350.16-89.16-350.16-90.46z"/>
	<path d="M-340.86-89.02l1.4,1.43c-0.69,0.72-2.03,1.2-3.17,1.2c-2.31,0-4.11-1.69-4.11-4.08c0-2.34,1.72-4.04,3.99-4.04
		c2.43,0,3.86,1.84,3.86,4.77h-5.6c0.26,0.84,0.93,1.41,1.85,1.41C-342.03-88.33-341.28-88.62-340.86-89.02z M-344.46-91.32h3.46
		c-0.21-0.76-0.78-1.26-1.67-1.26C-343.48-92.58-344.17-92.1-344.46-91.32z"/>
	<path d="M-332.39-94.51v1.84c-1.62,0-2.66,0.93-2.66,2.38v3.71h-2.19v-7.75h2.19v1.44C-334.53-93.9-333.57-94.51-332.39-94.51z"/>
	<path d="M-314.55-91.51v4.95h-2.1v-4.57c0-0.9-0.57-1.53-1.38-1.53c-0.87,0-1.5,0.58-1.5,1.41v4.69h-2.1v-4.57
		c0-0.9-0.57-1.53-1.37-1.53c-0.88,0-1.5,0.58-1.5,1.41v4.68h-2.19v-7.75h2.19v1.02c0.38-0.74,1.14-1.2,2.1-1.2
		c1.06,0,1.98,0.54,2.46,1.41c0.4-0.86,1.36-1.41,2.52-1.41C-315.8-94.51-314.55-93.27-314.55-91.51z"/>
	<path d="M-305.69-91.21v4.63h-2.12v-0.78c-0.55,0.63-1.44,0.96-2.28,0.96c-1.65,0-2.92-0.99-2.92-2.47c0-1.53,1.42-2.58,3.22-2.58
		c0.63,0,1.32,0.13,1.98,0.39v-0.15c0-0.83-0.51-1.54-1.79-1.54c-0.72,0-1.39,0.24-2.01,0.55l-0.74-1.46
		c1.1-0.55,2.16-0.85,3.24-0.85C-307.07-94.51-305.69-93.24-305.69-91.21z M-307.8-89.02v-0.72c-0.5-0.18-1.07-0.29-1.67-0.29
		c-0.79,0-1.42,0.46-1.42,1.1c0,0.63,0.55,1.02,1.3,1.02C-308.75-87.91-307.95-88.3-307.8-89.02z M-309.08-95.2h-1.48l1.74-2.34
		l1.97,0.36L-309.08-95.2z"/>
	<path d="M-304.26-87.57l0.95-1.51c0.69,0.5,1.56,0.87,2.59,0.87c0.58,0,1-0.24,1-0.58c0-0.48-0.57-0.63-1.37-0.84
		c-1.59-0.39-2.82-0.83-2.83-2.36c-0.01-1.47,1.2-2.52,3.03-2.52c1.11,0,2.21,0.39,3.06,0.96l-0.88,1.56
		c-0.71-0.43-1.51-0.69-2.17-0.69c-0.54,0-0.92,0.19-0.92,0.46c0,0.42,0.31,0.54,1.37,0.83c1.33,0.34,2.82,0.79,2.82,2.49
		c0,1.53-1.25,2.5-3.15,2.5C-302.01-86.4-303.33-86.82-304.26-87.57z"/>
	<path d="M-296.08-87.79c0-0.71,0.62-1.33,1.4-1.33c0.73,0,1.33,0.63,1.33,1.33c0,0.76-0.6,1.39-1.33,1.39
		C-295.46-86.4-296.08-87.03-296.08-87.79z M-295.91-96.88h2.48l-0.5,6.67h-1.49L-295.91-96.88z"/>
</g>
<polygon points="-266.77,-101.81 -268.19,-100.4 -260.69,-92.9 -285.89,-92.9 -285.89,-90.9 -260.79,-90.9 -268.29,-83.4 
	-266.88,-81.98 -256.91,-91.95 "/>
<path class="st2" d="M-64.96,64.81c0.02-0.58,0.04-1.17,0.04-1.75c0-27.44-22.24-49.68-49.68-49.68
	c-27.44,0-49.68,22.24-49.68,49.68c0,0.59,0.02,1.17,0.04,1.75h-0.01c0,0-1.83,40.08,49.65,92.4c51.48-52.32,49.65-92.4,49.65-92.4
	H-64.96z M-114.6,99.41c-20.08,0-36.36-16.28-36.36-36.36c0-20.08,16.28-36.36,36.36-36.36s36.36,16.28,36.36,36.36
	C-78.24,83.13-94.52,99.41-114.6,99.41z"/>
<rect x="-399.85" y="-382.98" class="st0" width="161.77" height="37.85"/>
<g>
	<path d="M-374.41-369.05l-4.2,10.3h-2.47l-4.2-10.3h2.49l2.95,7.26l2.96-7.26H-374.41z"/>
	<path d="M-368.47-361.19l1.4,1.43c-0.69,0.72-2.02,1.2-3.17,1.2c-2.31,0-4.11-1.69-4.11-4.08c0-2.34,1.73-4.04,3.99-4.04
		c2.43,0,3.85,1.84,3.85,4.77h-5.59c0.25,0.84,0.93,1.41,1.84,1.41C-369.64-360.5-368.89-360.79-368.47-361.19z M-372.07-363.49
		h3.46c-0.21-0.76-0.78-1.26-1.66-1.26C-371.09-364.75-371.78-364.27-372.07-363.49z"/>
	<path d="M-360-366.68v1.84c-1.62,0-2.65,0.93-2.65,2.38v3.71h-2.19v-7.75h2.19v1.44C-362.14-366.07-361.18-366.68-360-366.68z"/>
	<path d="M-348.81-361.19l1.4,1.43c-0.69,0.72-2.02,1.2-3.17,1.2c-2.31,0-4.11-1.69-4.11-4.08c0-2.34,1.73-4.04,3.99-4.04
		c2.43,0,3.85,1.84,3.85,4.77h-5.59c0.25,0.84,0.93,1.41,1.84,1.41C-349.98-360.5-349.23-360.79-348.81-361.19z M-352.41-363.49
		h3.46c-0.21-0.76-0.78-1.26-1.66-1.26C-351.43-364.75-352.12-364.27-352.41-363.49z"/>
	<path d="M-345.19-369.23h2.19v10.48h-2.19V-369.23z"/>
	<path d="M-328.25-362.63c0,2.38-1.5,4.06-3.57,4.06c-1.08,0-1.98-0.46-2.59-1.27v3.67h-2.19v-10.33h2.19v1.08
		c0.61-0.79,1.52-1.26,2.59-1.26C-329.75-366.68-328.25-365-328.25-362.63z M-330.38-362.63c0-1.29-0.85-2.21-2.07-2.21
		c-1.06,0-1.84,0.78-1.96,1.91v0.6c0.12,1.14,0.9,1.92,1.96,1.92C-331.24-360.41-330.38-361.33-330.38-362.63z"/>
	<path d="M-326.96-362.63c0-2.21,1.94-4.05,4.25-4.05c2.29,0,4.21,1.84,4.21,4.05s-1.92,4.06-4.21,4.06
		C-325.03-358.57-326.96-360.43-326.96-362.63z M-320.59-362.63c0-1.2-0.98-2.21-2.13-2.21c-1.17,0-2.15,1-2.15,2.21
		s0.98,2.22,2.15,2.22C-321.56-360.41-320.59-361.43-320.59-362.63z"/>
	<path d="M-311.99-366.68v1.84c-1.62,0-2.65,0.93-2.65,2.38v3.71h-2.19v-7.75h2.19v1.44C-314.13-366.07-313.18-366.68-311.99-366.68
		z"/>
	<path d="M-305.82-359.24c-0.45,0.41-1.16,0.67-1.79,0.67c-1.36,0-2.32-0.97-2.32-2.37v-3.79H-311v-1.77h1.06v-2.13h2.1v2.13h1.68
		v1.77h-1.68v3.45c0,0.51,0.33,0.87,0.74,0.87c0.3,0,0.6-0.1,0.75-0.25L-305.82-359.24z"/>
	<path d="M-297.57-363.38v4.63h-2.11v-0.78c-0.56,0.63-1.44,0.96-2.28,0.96c-1.65,0-2.93-0.99-2.93-2.47c0-1.53,1.43-2.58,3.23-2.58
		c0.63,0,1.32,0.13,1.98,0.39v-0.15c0-0.83-0.51-1.54-1.79-1.54c-0.72,0-1.4,0.24-2.01,0.55l-0.73-1.46
		c1.09-0.55,2.16-0.85,3.24-0.85C-298.95-366.68-297.57-365.41-297.57-363.38z M-299.68-361.19v-0.72c-0.5-0.18-1.06-0.29-1.67-0.29
		c-0.79,0-1.42,0.46-1.42,1.1c0,0.63,0.55,1.02,1.3,1.02C-300.63-360.08-299.83-360.47-299.68-361.19z"/>
	<path d="M-293.04-366.5h1.68v1.77h-1.68v5.98h-2.1v-5.98h-1.06v-1.77h1.06v-0.67c0-1.39,0.96-2.37,2.32-2.37
		c0.63,0,1.33,0.27,1.79,0.67l-0.53,1.33c-0.15-0.15-0.45-0.25-0.75-0.25c-0.41,0-0.74,0.36-0.74,0.87V-366.5z"/>
	<path d="M-290.49-362.63c0-2.21,1.94-4.05,4.25-4.05c2.29,0,4.21,1.84,4.21,4.05s-1.92,4.06-4.21,4.06
		C-288.55-358.57-290.49-360.43-290.49-362.63z M-284.11-362.63c0-1.2-0.98-2.21-2.13-2.21c-1.17,0-2.15,1-2.15,2.21
		s0.97,2.22,2.15,2.22C-285.09-360.41-284.11-361.43-284.11-362.63z"/>
	<path d="M-280.37-369.23h2.19v10.48h-2.19V-369.23z"/>
	<path d="M-276.17-368.77c0-0.62,0.52-1.17,1.2-1.17c0.65,0,1.17,0.55,1.17,1.17c0,0.66-0.53,1.2-1.17,1.2
		C-275.65-367.57-276.17-368.11-276.17-368.77z M-276.08-366.5h2.19v7.75h-2.19V-366.5z"/>
	<path d="M-272.3-362.63c0-2.21,1.94-4.05,4.25-4.05c2.29,0,4.21,1.84,4.21,4.05s-1.92,4.06-4.21,4.06
		C-270.36-358.57-272.3-360.43-272.3-362.63z M-265.92-362.63c0-1.2-0.98-2.21-2.13-2.21c-1.17,0-2.15,1-2.15,2.21
		s0.98,2.22,2.15,2.22C-266.9-360.41-265.92-361.43-265.92-362.63z"/>
</g>
<text transform="matrix(1 0 0 1 -447.1655 180.2915)" style="font-family:'Metropolis-Bold'; font-size:15px;">Ver el portafolio</text>
<polygon points="-232.22,-373.1 -233.77,-371.55 -225.55,-363.33 -253.18,-363.33 -253.18,-361.14 -225.67,-361.14 -233.89,-352.92 
	-232.34,-351.37 -221.41,-362.29 "/>
<rect x="-399.85" y="-283.62" class="st2" width="161.77" height="37.85"/>
<g>
	<path d="M-374.41-269.69l-4.2,10.3h-2.47l-4.2-10.3h2.49l2.95,7.26l2.96-7.26H-374.41z"/>
	<path d="M-368.47-261.83l1.4,1.43c-0.69,0.72-2.02,1.2-3.17,1.2c-2.31,0-4.11-1.69-4.11-4.08c0-2.34,1.73-4.04,3.99-4.04
		c2.43,0,3.85,1.84,3.85,4.77h-5.59c0.25,0.84,0.93,1.41,1.84,1.41C-369.64-261.14-368.89-261.43-368.47-261.83z M-372.07-264.13
		h3.46c-0.21-0.76-0.78-1.26-1.66-1.26C-371.09-265.39-371.78-264.91-372.07-264.13z"/>
	<path d="M-360-267.32v1.84c-1.62,0-2.65,0.93-2.65,2.38v3.71h-2.19v-7.75h2.19v1.44C-362.14-266.71-361.18-267.32-360-267.32z"/>
	<path d="M-348.81-261.83l1.4,1.43c-0.69,0.72-2.02,1.2-3.17,1.2c-2.31,0-4.11-1.69-4.11-4.08c0-2.34,1.73-4.04,3.99-4.04
		c2.43,0,3.85,1.84,3.85,4.77h-5.59c0.25,0.84,0.93,1.41,1.84,1.41C-349.98-261.14-349.23-261.43-348.81-261.83z M-352.41-264.13
		h3.46c-0.21-0.76-0.78-1.26-1.66-1.26C-351.43-265.39-352.12-264.91-352.41-264.13z"/>
	<path d="M-345.19-269.87h2.19v10.48h-2.19V-269.87z"/>
	<path d="M-328.25-263.27c0,2.38-1.5,4.06-3.57,4.06c-1.08,0-1.98-0.46-2.59-1.27v3.67h-2.19v-10.33h2.19v1.08
		c0.61-0.79,1.52-1.26,2.59-1.26C-329.75-267.32-328.25-265.64-328.25-263.27z M-330.38-263.27c0-1.29-0.85-2.21-2.07-2.21
		c-1.06,0-1.84,0.78-1.96,1.91v0.6c0.12,1.14,0.9,1.92,1.96,1.92C-331.24-261.05-330.38-261.97-330.38-263.27z"/>
	<path d="M-326.96-263.27c0-2.21,1.94-4.05,4.25-4.05c2.29,0,4.21,1.84,4.21,4.05s-1.92,4.06-4.21,4.06
		C-325.03-259.21-326.96-261.07-326.96-263.27z M-320.59-263.27c0-1.2-0.98-2.21-2.13-2.21c-1.17,0-2.15,1-2.15,2.21
		s0.98,2.22,2.15,2.22C-321.56-261.05-320.59-262.07-320.59-263.27z"/>
	<path d="M-311.99-267.32v1.84c-1.62,0-2.65,0.93-2.65,2.38v3.71h-2.19v-7.75h2.19v1.44C-314.13-266.71-313.18-267.32-311.99-267.32
		z"/>
	<path d="M-305.82-259.88c-0.45,0.41-1.16,0.67-1.79,0.67c-1.36,0-2.32-0.97-2.32-2.37v-3.79H-311v-1.77h1.06v-2.13h2.1v2.13h1.68
		v1.77h-1.68v3.45c0,0.51,0.33,0.87,0.74,0.87c0.3,0,0.6-0.1,0.75-0.25L-305.82-259.88z"/>
	<path d="M-297.57-264.02v4.63h-2.11v-0.78c-0.56,0.63-1.44,0.96-2.28,0.96c-1.65,0-2.93-0.99-2.93-2.47c0-1.53,1.43-2.58,3.23-2.58
		c0.63,0,1.32,0.13,1.98,0.39v-0.15c0-0.83-0.51-1.54-1.79-1.54c-0.72,0-1.4,0.24-2.01,0.55l-0.73-1.46
		c1.09-0.55,2.16-0.85,3.24-0.85C-298.95-267.32-297.57-266.05-297.57-264.02z M-299.68-261.83v-0.72c-0.5-0.18-1.06-0.29-1.67-0.29
		c-0.79,0-1.42,0.46-1.42,1.1c0,0.63,0.55,1.02,1.3,1.02C-300.63-260.72-299.83-261.11-299.68-261.83z"/>
	<path d="M-293.04-267.14h1.68v1.77h-1.68v5.98h-2.1v-5.98h-1.06v-1.77h1.06v-0.67c0-1.39,0.96-2.37,2.32-2.37
		c0.63,0,1.33,0.27,1.79,0.67l-0.53,1.33c-0.15-0.15-0.45-0.25-0.75-0.25c-0.41,0-0.74,0.36-0.74,0.87V-267.14z"/>
	<path d="M-290.49-263.27c0-2.21,1.94-4.05,4.25-4.05c2.29,0,4.21,1.84,4.21,4.05s-1.92,4.06-4.21,4.06
		C-288.55-259.21-290.49-261.07-290.49-263.27z M-284.11-263.27c0-1.2-0.98-2.21-2.13-2.21c-1.17,0-2.15,1-2.15,2.21
		s0.97,2.22,2.15,2.22C-285.09-261.05-284.11-262.07-284.11-263.27z"/>
	<path d="M-280.37-269.87h2.19v10.48h-2.19V-269.87z"/>
	<path d="M-276.17-269.41c0-0.62,0.52-1.17,1.2-1.17c0.65,0,1.17,0.55,1.17,1.17c0,0.66-0.53,1.2-1.17,1.2
		C-275.65-268.21-276.17-268.75-276.17-269.41z M-276.08-267.14h2.19v7.75h-2.19V-267.14z"/>
	<path d="M-272.3-263.27c0-2.21,1.94-4.05,4.25-4.05c2.29,0,4.21,1.84,4.21,4.05s-1.92,4.06-4.21,4.06
		C-270.36-259.21-272.3-261.07-272.3-263.27z M-265.92-263.27c0-1.2-0.98-2.21-2.13-2.21c-1.17,0-2.15,1-2.15,2.21
		s0.98,2.22,2.15,2.22C-266.9-261.05-265.92-262.07-265.92-263.27z"/>
</g>
<polygon points="-232.22,-273.74 -233.77,-272.19 -225.55,-263.97 -253.18,-263.97 -253.18,-261.78 -225.67,-261.78 
	-233.89,-253.56 -232.34,-252.01 -221.41,-262.93 "/>
<rect x="-399.85" y="-331.14" class="st1" width="161.77" height="37.85"/>
<g>
	<path d="M-374.41-317.21l-4.2,10.3h-2.47l-4.2-10.3h2.49l2.95,7.26l2.96-7.26H-374.41z"/>
	<path d="M-368.47-309.35l1.4,1.43c-0.69,0.72-2.02,1.2-3.17,1.2c-2.31,0-4.11-1.69-4.11-4.08c0-2.34,1.73-4.04,3.99-4.04
		c2.43,0,3.85,1.84,3.85,4.77h-5.59c0.25,0.84,0.93,1.41,1.84,1.41C-369.64-308.66-368.89-308.95-368.47-309.35z M-372.07-311.65
		h3.46c-0.21-0.76-0.78-1.26-1.66-1.26C-371.09-312.91-371.78-312.43-372.07-311.65z"/>
	<path d="M-360-314.84v1.84c-1.62,0-2.65,0.93-2.65,2.38v3.71h-2.19v-7.75h2.19v1.44C-362.14-314.23-361.18-314.84-360-314.84z"/>
	<path d="M-348.81-309.35l1.4,1.43c-0.69,0.72-2.02,1.2-3.17,1.2c-2.31,0-4.11-1.69-4.11-4.08c0-2.34,1.73-4.04,3.99-4.04
		c2.43,0,3.85,1.84,3.85,4.77h-5.59c0.25,0.84,0.93,1.41,1.84,1.41C-349.98-308.66-349.23-308.95-348.81-309.35z M-352.41-311.65
		h3.46c-0.21-0.76-0.78-1.26-1.66-1.26C-351.43-312.91-352.12-312.43-352.41-311.65z"/>
	<path d="M-345.19-317.39h2.19v10.48h-2.19V-317.39z"/>
	<path d="M-328.25-310.79c0,2.38-1.5,4.06-3.57,4.06c-1.08,0-1.98-0.46-2.59-1.27v3.67h-2.19v-10.33h2.19v1.08
		c0.61-0.79,1.52-1.26,2.59-1.26C-329.75-314.84-328.25-313.16-328.25-310.79z M-330.38-310.79c0-1.29-0.85-2.21-2.07-2.21
		c-1.06,0-1.84,0.78-1.96,1.91v0.6c0.12,1.14,0.9,1.92,1.96,1.92C-331.24-308.57-330.38-309.49-330.38-310.79z"/>
	<path d="M-326.96-310.79c0-2.21,1.94-4.05,4.25-4.05c2.29,0,4.21,1.84,4.21,4.05s-1.92,4.06-4.21,4.06
		C-325.03-306.73-326.96-308.59-326.96-310.79z M-320.59-310.79c0-1.2-0.98-2.21-2.13-2.21c-1.17,0-2.15,1-2.15,2.21
		s0.98,2.22,2.15,2.22C-321.56-308.57-320.59-309.59-320.59-310.79z"/>
	<path d="M-311.99-314.84v1.84c-1.62,0-2.65,0.93-2.65,2.38v3.71h-2.19v-7.75h2.19v1.44C-314.13-314.23-313.18-314.84-311.99-314.84
		z"/>
	<path d="M-305.82-307.4c-0.45,0.41-1.16,0.67-1.79,0.67c-1.36,0-2.32-0.97-2.32-2.37v-3.79H-311v-1.77h1.06v-2.13h2.1v2.13h1.68
		v1.77h-1.68v3.45c0,0.51,0.33,0.87,0.74,0.87c0.3,0,0.6-0.1,0.75-0.25L-305.82-307.4z"/>
	<path d="M-297.57-311.54v4.63h-2.11v-0.78c-0.56,0.63-1.44,0.96-2.28,0.96c-1.65,0-2.93-0.99-2.93-2.47c0-1.53,1.43-2.58,3.23-2.58
		c0.63,0,1.32,0.13,1.98,0.39v-0.15c0-0.83-0.51-1.54-1.79-1.54c-0.72,0-1.4,0.24-2.01,0.55l-0.73-1.46
		c1.09-0.55,2.16-0.85,3.24-0.85C-298.95-314.84-297.57-313.57-297.57-311.54z M-299.68-309.35v-0.72c-0.5-0.18-1.06-0.29-1.67-0.29
		c-0.79,0-1.42,0.46-1.42,1.1c0,0.63,0.55,1.02,1.3,1.02C-300.63-308.24-299.83-308.63-299.68-309.35z"/>
	<path d="M-293.04-314.66h1.68v1.77h-1.68v5.98h-2.1v-5.98h-1.06v-1.77h1.06v-0.67c0-1.39,0.96-2.37,2.32-2.37
		c0.63,0,1.33,0.27,1.79,0.67l-0.53,1.33c-0.15-0.15-0.45-0.25-0.75-0.25c-0.41,0-0.74,0.36-0.74,0.87V-314.66z"/>
	<path d="M-290.49-310.79c0-2.21,1.94-4.05,4.25-4.05c2.29,0,4.21,1.84,4.21,4.05s-1.92,4.06-4.21,4.06
		C-288.55-306.73-290.49-308.59-290.49-310.79z M-284.11-310.79c0-1.2-0.98-2.21-2.13-2.21c-1.17,0-2.15,1-2.15,2.21
		s0.97,2.22,2.15,2.22C-285.09-308.57-284.11-309.59-284.11-310.79z"/>
	<path d="M-280.37-317.39h2.19v10.48h-2.19V-317.39z"/>
	<path d="M-276.17-316.93c0-0.62,0.52-1.17,1.2-1.17c0.65,0,1.17,0.55,1.17,1.17c0,0.66-0.53,1.2-1.17,1.2
		C-275.65-315.73-276.17-316.27-276.17-316.93z M-276.08-314.66h2.19v7.75h-2.19V-314.66z"/>
	<path d="M-272.3-310.79c0-2.21,1.94-4.05,4.25-4.05c2.29,0,4.21,1.84,4.21,4.05s-1.92,4.06-4.21,4.06
		C-270.36-306.73-272.3-308.59-272.3-310.79z M-265.92-310.79c0-1.2-0.98-2.21-2.13-2.21c-1.17,0-2.15,1-2.15,2.21
		s0.98,2.22,2.15,2.22C-266.9-308.57-265.92-309.59-265.92-310.79z"/>
</g>
<polygon points="-232.22,-321.26 -233.77,-319.71 -225.55,-311.49 -253.18,-311.49 -253.18,-309.3 -225.67,-309.3 -233.89,-301.08 
	-232.34,-299.53 -221.41,-310.45 "/>
<g>
	<path d="M-382.83-23.46c0,0.71-0.62,1.33-1.39,1.33c-0.74,0-1.33-0.63-1.33-1.33c0-0.76,0.6-1.39,1.33-1.39
		C-383.44-24.85-382.83-24.22-382.83-23.46z M-382.99-14.37h-2.47l0.5-6.67h1.48L-382.99-14.37z"/>
	<path d="M-381.17-22.08c0-2.89,2.52-5.32,5.47-5.32c1.56,0,3,0.66,4,1.72l-1.61,1.44c-0.6-0.69-1.45-1.16-2.4-1.16
		c-1.72,0-3.2,1.53-3.2,3.31c0,1.8,1.47,3.33,3.2,3.33c0.95,0,1.8-0.46,2.4-1.16l1.61,1.44c-1,1.05-2.45,1.72-4,1.72
		C-378.65-16.74-381.17-19.18-381.17-22.08z"/>
	<path d="M-370.87-20.8c0-2.21,1.93-4.05,4.24-4.05c2.29,0,4.21,1.84,4.21,4.05s-1.92,4.06-4.21,4.06
		C-368.93-16.74-370.87-18.6-370.87-20.8z M-364.49-20.8c0-1.2-0.97-2.21-2.13-2.21c-1.17,0-2.14,1-2.14,2.21s0.97,2.22,2.14,2.22
		C-365.47-18.58-364.49-19.6-364.49-20.8z"/>
	<path d="M-353.35-21.85v4.93h-2.11v-4.47c0-0.96-0.6-1.62-1.47-1.62c-0.92,0-1.62,0.66-1.62,1.5l-0.02-0.04v4.63h-2.19v-7.75h2.19
		v0.98c0.47-0.71,1.33-1.16,2.34-1.16C-354.55-24.85-353.35-23.61-353.35-21.85z"/>
	<path d="M-346.85-17.41c-0.45,0.41-1.15,0.67-1.78,0.67c-1.37,0-2.33-0.97-2.33-2.37v-3.79h-1.07v-1.77h1.07v-2.13h2.1v2.13h1.68
		v1.77h-1.68v3.45c0,0.51,0.33,0.87,0.74,0.87c0.3,0,0.6-0.1,0.75-0.25L-346.85-17.41z"/>
	<path d="M-338.59-21.55v4.63h-2.12v-0.78c-0.55,0.63-1.44,0.96-2.28,0.96c-1.65,0-2.92-0.99-2.92-2.47c0-1.53,1.42-2.58,3.22-2.58
		c0.63,0,1.32,0.13,1.98,0.39v-0.15c0-0.83-0.51-1.54-1.79-1.54c-0.72,0-1.39,0.24-2.01,0.55l-0.74-1.46
		c1.1-0.55,2.16-0.85,3.24-0.85C-339.97-24.85-338.59-23.58-338.59-21.55z M-340.71-19.36v-0.72c-0.5-0.18-1.07-0.29-1.67-0.29
		c-0.79,0-1.42,0.46-1.42,1.1c0,0.63,0.55,1.02,1.3,1.02C-341.65-18.25-340.86-18.64-340.71-19.36z"/>
	<path d="M-337.03-20.8c0-2.21,1.95-4.05,4.24-4.05c1.26,0,2.29,0.51,3.04,1.32l-1.46,1.24c-0.39-0.43-1-0.72-1.6-0.72
		c-1.14,0-2.1,1-2.1,2.19c0,1.21,0.96,2.23,2.11,2.23c0.6,0,1.23-0.3,1.63-0.75l1.46,1.23c-0.76,0.84-1.81,1.36-3.1,1.36
		C-335.09-16.74-337.03-18.6-337.03-20.8z"/>
	<path d="M-323.51-17.41c-0.45,0.41-1.15,0.67-1.78,0.67c-1.37,0-2.33-0.97-2.33-2.37v-3.79h-1.07v-1.77h1.07v-2.13h2.1v2.13h1.68
		v1.77h-1.68v3.45c0,0.51,0.33,0.87,0.74,0.87c0.3,0,0.6-0.1,0.75-0.25L-323.51-17.41z"/>
	<path d="M-315.26-21.55v4.63h-2.12v-0.78c-0.55,0.63-1.44,0.96-2.28,0.96c-1.65,0-2.92-0.99-2.92-2.47c0-1.53,1.42-2.58,3.22-2.58
		c0.63,0,1.32,0.13,1.98,0.39v-0.15c0-0.83-0.51-1.54-1.79-1.54c-0.72,0-1.39,0.24-2.01,0.55L-321.9-24
		c1.1-0.55,2.16-0.85,3.24-0.85C-316.64-24.85-315.26-23.58-315.26-21.55z M-317.37-19.36v-0.72c-0.5-0.18-1.07-0.29-1.67-0.29
		c-0.79,0-1.42,0.46-1.42,1.1c0,0.63,0.55,1.02,1.3,1.02C-318.32-18.25-317.52-18.64-317.37-19.36z"/>
	<path d="M-308.35-24.85v1.84c-1.62,0-2.66,0.93-2.66,2.38v3.71h-2.19v-7.75h2.19v1.44C-310.49-24.24-309.53-24.85-308.35-24.85z"/>
	<path d="M-295.73-21.55v4.63h-2.12v-0.78c-0.55,0.63-1.44,0.96-2.28,0.96c-1.65,0-2.92-0.99-2.92-2.47c0-1.53,1.42-2.58,3.22-2.58
		c0.63,0,1.32,0.13,1.98,0.39v-0.15c0-0.83-0.51-1.54-1.79-1.54c-0.72,0-1.39,0.24-2.01,0.55l-0.74-1.46
		c1.1-0.55,2.16-0.85,3.24-0.85C-297.11-24.85-295.73-23.58-295.73-21.55z M-297.85-19.36v-0.72c-0.5-0.18-1.07-0.29-1.67-0.29
		c-0.79,0-1.42,0.46-1.42,1.1c0,0.63,0.55,1.02,1.3,1.02C-298.79-18.25-298-18.64-297.85-19.36z"/>
	<path d="M-286.29-21.85v4.93h-2.11v-4.47c0-0.96-0.6-1.62-1.47-1.62c-0.92,0-1.62,0.66-1.62,1.5v4.59h-2.19V-27.4h2.19v3.67
		c0.48-0.67,1.33-1.13,2.32-1.13C-287.49-24.85-286.29-23.61-286.29-21.85z"/>
	<path d="M-284.72-20.8c0-2.21,1.93-4.05,4.24-4.05c2.29,0,4.21,1.84,4.21,4.05s-1.92,4.06-4.21,4.06
		C-282.78-16.74-284.72-18.6-284.72-20.8z M-278.35-20.8c0-1.2-0.97-2.21-2.13-2.21c-1.17,0-2.14,1-2.14,2.21s0.97,2.22,2.14,2.22
		C-279.32-18.58-278.35-19.6-278.35-20.8z"/>
	<path d="M-269.75-24.85v1.84c-1.62,0-2.66,0.93-2.66,2.38v3.71h-2.19v-7.75h2.19v1.44C-271.89-24.24-270.93-24.85-269.75-24.85z"/>
	<path d="M-261.71-21.55v4.63h-2.12v-0.78c-0.55,0.63-1.44,0.96-2.28,0.96c-1.65,0-2.92-0.99-2.92-2.47c0-1.53,1.42-2.58,3.22-2.58
		c0.63,0,1.32,0.13,1.98,0.39v-0.15c0-0.83-0.51-1.54-1.79-1.54c-0.72,0-1.39,0.24-2.01,0.55l-0.74-1.46
		c1.1-0.55,2.16-0.85,3.24-0.85C-263.09-24.85-261.71-23.58-261.71-21.55z M-263.83-19.36v-0.72c-0.5-0.18-1.07-0.29-1.67-0.29
		c-0.79,0-1.42,0.46-1.42,1.1c0,0.63,0.55,1.02,1.3,1.02C-264.77-18.25-263.98-18.64-263.83-19.36z"/>
	<path d="M-259.77-18.13c0-0.71,0.62-1.33,1.4-1.33c0.73,0,1.33,0.63,1.33,1.33c0,0.76-0.6,1.39-1.33,1.39
		C-259.15-16.74-259.77-17.37-259.77-18.13z M-259.6-27.22h2.48l-0.5,6.67h-1.49L-259.6-27.22z"/>
</g>
<rect x="-399.65" y="51.18" class="st2" width="161.27" height="37.85"/>
<polygon points="-230.97,60.19 -232.39,61.6 -224.89,69.1 -250.1,69.1 -250.1,71.1 -224.99,71.1 -232.49,78.6 -231.08,80.02 
	-221.11,70.05 "/>
<g>
	<path d="M-382.83,69.06c0,0.71-0.62,1.33-1.39,1.33c-0.74,0-1.33-0.63-1.33-1.33c0-0.76,0.6-1.39,1.33-1.39
		C-383.44,67.67-382.83,68.3-382.83,69.06z M-382.99,78.15h-2.47l0.5-6.67h1.48L-382.99,78.15z"/>
	<path d="M-381.17,70.44c0-2.89,2.52-5.32,5.47-5.32c1.56,0,3,0.66,4,1.72l-1.61,1.44c-0.6-0.69-1.45-1.16-2.4-1.16
		c-1.72,0-3.2,1.53-3.2,3.31c0,1.8,1.47,3.33,3.2,3.33c0.95,0,1.8-0.46,2.4-1.16l1.61,1.44c-1,1.05-2.45,1.72-4,1.72
		C-378.65,75.78-381.17,73.34-381.17,70.44z"/>
	<path d="M-370.87,71.72c0-2.21,1.93-4.05,4.24-4.05c2.29,0,4.21,1.84,4.21,4.05s-1.92,4.06-4.21,4.06
		C-368.93,75.78-370.87,73.92-370.87,71.72z M-364.49,71.72c0-1.2-0.97-2.21-2.13-2.21c-1.17,0-2.14,1-2.14,2.21
		s0.97,2.22,2.14,2.22C-365.47,73.94-364.49,72.92-364.49,71.72z"/>
	<path d="M-353.35,70.67v4.93h-2.11v-4.47c0-0.96-0.6-1.62-1.47-1.62c-0.92,0-1.62,0.66-1.62,1.5l-0.02-0.04v4.63h-2.19v-7.75h2.19
		v0.98c0.47-0.71,1.33-1.16,2.34-1.16C-354.55,67.67-353.35,68.91-353.35,70.67z"/>
	<path d="M-346.85,75.11c-0.45,0.41-1.15,0.67-1.78,0.67c-1.37,0-2.33-0.97-2.33-2.37v-3.79h-1.07v-1.77h1.07v-2.13h2.1v2.13h1.68
		v1.77h-1.68v3.45c0,0.51,0.33,0.87,0.74,0.87c0.3,0,0.6-0.1,0.75-0.25L-346.85,75.11z"/>
	<path d="M-338.59,70.97v4.63h-2.12v-0.78c-0.55,0.63-1.44,0.96-2.28,0.96c-1.65,0-2.92-0.99-2.92-2.47c0-1.53,1.42-2.58,3.22-2.58
		c0.63,0,1.32,0.13,1.98,0.39v-0.15c0-0.83-0.51-1.54-1.79-1.54c-0.72,0-1.39,0.24-2.01,0.55l-0.74-1.46
		c1.1-0.55,2.16-0.85,3.24-0.85C-339.97,67.67-338.59,68.94-338.59,70.97z M-340.71,73.15v-0.72c-0.5-0.18-1.07-0.29-1.67-0.29
		c-0.79,0-1.42,0.46-1.42,1.1c0,0.63,0.55,1.02,1.3,1.02C-341.65,74.27-340.86,73.88-340.71,73.15z"/>
	<path d="M-337.03,71.72c0-2.21,1.95-4.05,4.24-4.05c1.26,0,2.29,0.51,3.04,1.32l-1.46,1.24c-0.39-0.43-1-0.72-1.6-0.72
		c-1.14,0-2.1,1-2.1,2.19c0,1.21,0.96,2.23,2.11,2.23c0.6,0,1.23-0.3,1.63-0.75l1.46,1.23c-0.76,0.84-1.81,1.36-3.1,1.36
		C-335.09,75.78-337.03,73.92-337.03,71.72z"/>
	<path d="M-323.51,75.11c-0.45,0.41-1.15,0.67-1.78,0.67c-1.37,0-2.33-0.97-2.33-2.37v-3.79h-1.07v-1.77h1.07v-2.13h2.1v2.13h1.68
		v1.77h-1.68v3.45c0,0.51,0.33,0.87,0.74,0.87c0.3,0,0.6-0.1,0.75-0.25L-323.51,75.11z"/>
	<path d="M-315.26,70.97v4.63h-2.12v-0.78c-0.55,0.63-1.44,0.96-2.28,0.96c-1.65,0-2.92-0.99-2.92-2.47c0-1.53,1.42-2.58,3.22-2.58
		c0.63,0,1.32,0.13,1.98,0.39v-0.15c0-0.83-0.51-1.54-1.79-1.54c-0.72,0-1.39,0.24-2.01,0.55l-0.74-1.46
		c1.1-0.55,2.16-0.85,3.24-0.85C-316.64,67.67-315.26,68.94-315.26,70.97z M-317.37,73.15v-0.72c-0.5-0.18-1.07-0.29-1.67-0.29
		c-0.79,0-1.42,0.46-1.42,1.1c0,0.63,0.55,1.02,1.3,1.02C-318.32,74.27-317.52,73.88-317.37,73.15z"/>
	<path d="M-308.35,67.67v1.84c-1.62,0-2.66,0.93-2.66,2.38v3.71h-2.19v-7.75h2.19v1.44C-310.49,68.28-309.53,67.67-308.35,67.67z"/>
	<path d="M-295.73,70.97v4.63h-2.12v-0.78c-0.55,0.63-1.44,0.96-2.28,0.96c-1.65,0-2.92-0.99-2.92-2.47c0-1.53,1.42-2.58,3.22-2.58
		c0.63,0,1.32,0.13,1.98,0.39v-0.15c0-0.83-0.51-1.54-1.79-1.54c-0.72,0-1.39,0.24-2.01,0.55l-0.74-1.46
		c1.1-0.55,2.16-0.85,3.24-0.85C-297.11,67.67-295.73,68.94-295.73,70.97z M-297.85,73.15v-0.72c-0.5-0.18-1.07-0.29-1.67-0.29
		c-0.79,0-1.42,0.46-1.42,1.1c0,0.63,0.55,1.02,1.3,1.02C-298.79,74.27-298,73.88-297.85,73.15z"/>
	<path d="M-286.29,70.67v4.93h-2.11v-4.47c0-0.96-0.6-1.62-1.47-1.62c-0.92,0-1.62,0.66-1.62,1.5v4.59h-2.19V65.12h2.19v3.67
		c0.48-0.67,1.33-1.13,2.32-1.13C-287.49,67.67-286.29,68.91-286.29,70.67z"/>
	<path d="M-284.72,71.72c0-2.21,1.93-4.05,4.24-4.05c2.29,0,4.21,1.84,4.21,4.05s-1.92,4.06-4.21,4.06
		C-282.78,75.78-284.72,73.92-284.72,71.72z M-278.35,71.72c0-1.2-0.97-2.21-2.13-2.21c-1.17,0-2.14,1-2.14,2.21
		s0.97,2.22,2.14,2.22C-279.32,73.94-278.35,72.92-278.35,71.72z"/>
	<path d="M-269.75,67.67v1.84c-1.62,0-2.66,0.93-2.66,2.38v3.71h-2.19v-7.75h2.19v1.44C-271.89,68.28-270.93,67.67-269.75,67.67z"/>
	<path d="M-261.71,70.97v4.63h-2.12v-0.78c-0.55,0.63-1.44,0.96-2.28,0.96c-1.65,0-2.92-0.99-2.92-2.47c0-1.53,1.42-2.58,3.22-2.58
		c0.63,0,1.32,0.13,1.98,0.39v-0.15c0-0.83-0.51-1.54-1.79-1.54c-0.72,0-1.39,0.24-2.01,0.55l-0.74-1.46
		c1.1-0.55,2.16-0.85,3.24-0.85C-263.09,67.67-261.71,68.94-261.71,70.97z M-263.83,73.15v-0.72c-0.5-0.18-1.07-0.29-1.67-0.29
		c-0.79,0-1.42,0.46-1.42,1.1c0,0.63,0.55,1.02,1.3,1.02C-264.77,74.27-263.98,73.88-263.83,73.15z"/>
	<path d="M-259.77,74.39c0-0.71,0.62-1.33,1.4-1.33c0.73,0,1.33,0.63,1.33,1.33c0,0.76-0.6,1.39-1.33,1.39
		C-259.15,75.78-259.77,75.15-259.77,74.39z M-259.6,65.3h2.48l-0.5,6.67h-1.49L-259.6,65.3z"/>
</g>
<rect x="-399.65" y="7.26" class="st1" width="161.27" height="37.85"/>
<polygon points="-230.97,16.27 -232.39,17.68 -224.89,25.18 -250.1,25.18 -250.1,27.18 -224.99,27.18 -232.49,34.68 -231.08,36.1 
	-221.11,26.13 "/>
<g>
	<path d="M-382.83,25.14c0,0.71-0.62,1.33-1.39,1.33c-0.74,0-1.33-0.63-1.33-1.33c0-0.76,0.6-1.39,1.33-1.39
		C-383.44,23.75-382.83,24.38-382.83,25.14z M-382.99,34.23h-2.47l0.5-6.67h1.48L-382.99,34.23z"/>
	<path d="M-381.17,26.52c0-2.89,2.52-5.32,5.47-5.32c1.56,0,3,0.66,4,1.72l-1.61,1.44c-0.6-0.69-1.45-1.16-2.4-1.16
		c-1.72,0-3.2,1.53-3.2,3.31c0,1.8,1.47,3.33,3.2,3.33c0.95,0,1.8-0.46,2.4-1.16l1.61,1.44c-1,1.05-2.45,1.72-4,1.72
		C-378.65,31.86-381.17,29.42-381.17,26.52z"/>
	<path d="M-370.87,27.8c0-2.21,1.93-4.05,4.24-4.05c2.29,0,4.21,1.84,4.21,4.05s-1.92,4.06-4.21,4.06
		C-368.93,31.86-370.87,30-370.87,27.8z M-364.49,27.8c0-1.2-0.97-2.21-2.13-2.21c-1.17,0-2.14,1-2.14,2.21s0.97,2.22,2.14,2.22
		C-365.47,30.02-364.49,29-364.49,27.8z"/>
	<path d="M-353.35,26.75v4.93h-2.11v-4.47c0-0.96-0.6-1.62-1.47-1.62c-0.92,0-1.62,0.66-1.62,1.5l-0.02-0.04v4.63h-2.19v-7.75h2.19
		v0.98c0.47-0.71,1.33-1.16,2.34-1.16C-354.55,23.75-353.35,24.99-353.35,26.75z"/>
	<path d="M-346.85,31.19c-0.45,0.41-1.15,0.67-1.78,0.67c-1.37,0-2.33-0.97-2.33-2.37V25.7h-1.07v-1.77h1.07V21.8h2.1v2.13h1.68
		v1.77h-1.68v3.45c0,0.51,0.33,0.87,0.74,0.87c0.3,0,0.6-0.1,0.75-0.25L-346.85,31.19z"/>
	<path d="M-338.59,27.05v4.63h-2.12V30.9c-0.55,0.63-1.44,0.96-2.28,0.96c-1.65,0-2.92-0.99-2.92-2.47c0-1.53,1.42-2.58,3.22-2.58
		c0.63,0,1.32,0.13,1.98,0.39v-0.15c0-0.83-0.51-1.54-1.79-1.54c-0.72,0-1.39,0.24-2.01,0.55l-0.74-1.46
		c1.1-0.55,2.16-0.85,3.24-0.85C-339.97,23.75-338.59,25.02-338.59,27.05z M-340.71,29.23v-0.72c-0.5-0.18-1.07-0.29-1.67-0.29
		c-0.79,0-1.42,0.46-1.42,1.1c0,0.63,0.55,1.02,1.3,1.02C-341.65,30.35-340.86,29.96-340.71,29.23z"/>
	<path d="M-337.03,27.8c0-2.21,1.95-4.05,4.24-4.05c1.26,0,2.29,0.51,3.04,1.32l-1.46,1.24c-0.39-0.43-1-0.72-1.6-0.72
		c-1.14,0-2.1,1-2.1,2.19c0,1.21,0.96,2.23,2.11,2.23c0.6,0,1.23-0.3,1.63-0.75l1.46,1.23c-0.76,0.84-1.81,1.36-3.1,1.36
		C-335.09,31.86-337.03,30-337.03,27.8z"/>
	<path d="M-323.51,31.19c-0.45,0.41-1.15,0.67-1.78,0.67c-1.37,0-2.33-0.97-2.33-2.37V25.7h-1.07v-1.77h1.07V21.8h2.1v2.13h1.68
		v1.77h-1.68v3.45c0,0.51,0.33,0.87,0.74,0.87c0.3,0,0.6-0.1,0.75-0.25L-323.51,31.19z"/>
	<path d="M-315.26,27.05v4.63h-2.12V30.9c-0.55,0.63-1.44,0.96-2.28,0.96c-1.65,0-2.92-0.99-2.92-2.47c0-1.53,1.42-2.58,3.22-2.58
		c0.63,0,1.32,0.13,1.98,0.39v-0.15c0-0.83-0.51-1.54-1.79-1.54c-0.72,0-1.39,0.24-2.01,0.55l-0.74-1.46
		c1.1-0.55,2.16-0.85,3.24-0.85C-316.64,23.75-315.26,25.02-315.26,27.05z M-317.37,29.23v-0.72c-0.5-0.18-1.07-0.29-1.67-0.29
		c-0.79,0-1.42,0.46-1.42,1.1c0,0.63,0.55,1.02,1.3,1.02C-318.32,30.35-317.52,29.96-317.37,29.23z"/>
	<path d="M-308.35,23.75v1.84c-1.62,0-2.66,0.93-2.66,2.38v3.71h-2.19v-7.75h2.19v1.44C-310.49,24.36-309.53,23.75-308.35,23.75z"/>
	<path d="M-295.73,27.05v4.63h-2.12V30.9c-0.55,0.63-1.44,0.96-2.28,0.96c-1.65,0-2.92-0.99-2.92-2.47c0-1.53,1.42-2.58,3.22-2.58
		c0.63,0,1.32,0.13,1.98,0.39v-0.15c0-0.83-0.51-1.54-1.79-1.54c-0.72,0-1.39,0.24-2.01,0.55l-0.74-1.46
		c1.1-0.55,2.16-0.85,3.24-0.85C-297.11,23.75-295.73,25.02-295.73,27.05z M-297.85,29.23v-0.72c-0.5-0.18-1.07-0.29-1.67-0.29
		c-0.79,0-1.42,0.46-1.42,1.1c0,0.63,0.55,1.02,1.3,1.02C-298.79,30.35-298,29.96-297.85,29.23z"/>
	<path d="M-286.29,26.75v4.93h-2.11v-4.47c0-0.96-0.6-1.62-1.47-1.62c-0.92,0-1.62,0.66-1.62,1.5v4.59h-2.19V21.2h2.19v3.67
		c0.48-0.67,1.33-1.13,2.32-1.13C-287.49,23.75-286.29,24.99-286.29,26.75z"/>
	<path d="M-284.72,27.8c0-2.21,1.93-4.05,4.24-4.05c2.29,0,4.21,1.84,4.21,4.05s-1.92,4.06-4.21,4.06
		C-282.78,31.86-284.72,30-284.72,27.8z M-278.35,27.8c0-1.2-0.97-2.21-2.13-2.21c-1.17,0-2.14,1-2.14,2.21s0.97,2.22,2.14,2.22
		C-279.32,30.02-278.35,29-278.35,27.8z"/>
	<path d="M-269.75,23.75v1.84c-1.62,0-2.66,0.93-2.66,2.38v3.71h-2.19v-7.75h2.19v1.44C-271.89,24.36-270.93,23.75-269.75,23.75z"/>
	<path d="M-261.71,27.05v4.63h-2.12V30.9c-0.55,0.63-1.44,0.96-2.28,0.96c-1.65,0-2.92-0.99-2.92-2.47c0-1.53,1.42-2.58,3.22-2.58
		c0.63,0,1.32,0.13,1.98,0.39v-0.15c0-0.83-0.51-1.54-1.79-1.54c-0.72,0-1.39,0.24-2.01,0.55l-0.74-1.46
		c1.1-0.55,2.16-0.85,3.24-0.85C-263.09,23.75-261.71,25.02-261.71,27.05z M-263.83,29.23v-0.72c-0.5-0.18-1.07-0.29-1.67-0.29
		c-0.79,0-1.42,0.46-1.42,1.1c0,0.63,0.55,1.02,1.3,1.02C-264.77,30.35-263.98,29.96-263.83,29.23z"/>
	<path d="M-259.77,30.47c0-0.71,0.62-1.33,1.4-1.33c0.73,0,1.33,0.63,1.33,1.33c0,0.76-0.6,1.39-1.33,1.39
		C-259.15,31.86-259.77,31.23-259.77,30.47z M-259.6,21.38h2.48l-0.5,6.67h-1.49L-259.6,21.38z"/>
</g>
<text transform="matrix(1 0 0 1 -447.1655 157.207)" style="font-family:'Metropolis-Bold'; font-size:15px;">¡Contactar ahora! </text>
<g>
	<g>
		<path class="st3" d="M-157.78-83.84v1.15h-5.7v-8.4h1.25v7.25H-157.78z"/>
		<path class="st3" d="M-154.32-89.94v2.4h4.45v1.15h-4.45v2.55h4.93v1.15h-6.17v-8.4h6.17v1.15H-154.32z"/>
		<path class="st3" d="M-145.67-89.94v2.4h4.45v1.15h-4.45v2.55h4.93v1.15h-6.17v-8.4h6.17v1.15H-145.67z"/>
		<path class="st3" d="M-133.78-85.73l2.14,3.04h-1.42l-2.05-2.92h-1.93v2.92h-1.23v-8.4h3.53c1.77,0,3.12,1.14,3.12,2.74
			C-131.63-87.06-132.51-86.06-133.78-85.73z M-137.04-86.76h2.13c1.21,0,2.03-0.6,2.03-1.59s-0.82-1.59-2.03-1.59h-2.13V-86.76z"/>
		<path class="st3" d="M-124.74-91.09h1.23l2.95,5.49l2.95-5.49h1.24v8.4h-1.24v-5.98l-2.95,5.49l-2.95-5.49v5.98h-1.23V-91.09z"/>
		<path class="st3" d="M-107.61-84.4h-4.38l-0.73,1.71h-1.37l3.61-8.4h1.37l3.61,8.4h-1.37L-107.61-84.4z M-108.08-85.52l-1.71-3.98
			l-1.71,3.98H-108.08z M-109.38-91.81h-0.88l1.45-1.81l1.19,0.24L-109.38-91.81z"/>
		<path class="st3" d="M-103.8-83.9l0.75-0.92c0.75,0.71,1.63,1.17,2.76,1.17c1.16,0,1.76-0.61,1.76-1.28c0-0.79-0.7-1.1-2.1-1.42
			c-1.71-0.4-2.85-0.92-2.85-2.43c0-1.41,1.22-2.47,2.91-2.47c1.29,0,2.26,0.48,3.07,1.19l-0.71,0.93
			c-0.71-0.65-1.55-1.03-2.41-1.03c-0.94,0-1.6,0.6-1.6,1.27c0,0.78,0.72,1.05,2.1,1.38c1.67,0.39,2.83,0.95,2.83,2.46
			c0,1.42-1.08,2.49-3.05,2.49C-101.75-82.56-102.91-83.05-103.8-83.9z"/>
	</g>
</g>
<polygon class="st4" points="-73.01,-94.06 -74.16,-92.91 -68.05,-86.8 -88.59,-86.8 -88.59,-85.17 -68.13,-85.17 -74.24,-79.06 
	-73.09,-77.9 -64.97,-86.03 "/>
<g>
	<g>
		<path class="st3" d="M-164-108.78l1.04-1.23c0.79,0.68,1.7,1.1,2.76,1.1c0.9,0,1.37-0.42,1.37-0.94c0-0.6-0.49-0.78-1.77-1.08
			c-1.77-0.4-3.03-0.9-3.03-2.53c0-1.55,1.27-2.62,3.1-2.62c1.37,0,2.43,0.43,3.29,1.16l-0.94,1.29c-0.75-0.6-1.59-0.93-2.4-0.93
			c-0.77,0-1.23,0.4-1.23,0.9c0,0.61,0.5,0.81,1.8,1.1c1.81,0.4,3.01,0.94,3.01,2.49c0,1.6-1.21,2.66-3.26,2.66
			C-161.72-107.39-163.02-107.87-164-108.78z"/>
		<path class="st3" d="M-155.77-113.85h1.79v6.32h-1.79V-113.85z M-154.08-116.47l1.6,0.29l-1.81,1.61h-1.21L-154.08-116.47z"/>
		<path class="st3" d="M-146.06-113.85v5.65c0,1.63-1.41,2.77-3.4,2.77c-1.11,0-2.16-0.35-2.79-0.84l0.62-1.26
			c0.42,0.37,1.15,0.6,1.88,0.6c1.15,0,1.88-0.53,1.88-1.34v-0.7c-0.5,0.61-1.26,0.98-2.09,0.98c-1.59,0-2.8-1.25-2.8-3.01
			c0-1.76,1.21-3,2.8-3c0.86,0,1.66,0.4,2.09,1v-0.86H-146.06z M-147.86-111c0-0.88-0.64-1.49-1.53-1.49
			c-0.89,0-1.53,0.61-1.53,1.49c0,0.88,0.64,1.5,1.53,1.5C-148.5-109.5-147.86-110.12-147.86-111z"/>
		<path class="st3" d="M-138.52-113.85v6.32h-1.78v-0.79c-0.38,0.58-1.09,0.94-1.91,0.94c-1.37,0-2.35-1.01-2.35-2.44v-4.02h1.72
			v3.64c0,0.78,0.49,1.32,1.2,1.32c0.75,0,1.32-0.54,1.32-1.22l0.01,0.04v-3.78H-138.52z"/>
		<path class="st3" d="M-132.56-109.52l1.14,1.16c-0.56,0.59-1.65,0.98-2.58,0.98c-1.88,0-3.35-1.38-3.35-3.32
			c0-1.91,1.41-3.29,3.25-3.29c1.98,0,3.14,1.5,3.14,3.89h-4.56c0.21,0.68,0.76,1.15,1.5,1.15
			C-133.51-108.96-132.9-109.19-132.56-109.52z M-135.49-111.39h2.82c-0.17-0.62-0.64-1.03-1.36-1.03
			C-134.7-112.42-135.26-112.03-135.49-111.39z"/>
		<path class="st3" d="M-123.74-111.55v4.02h-1.72v-3.64c0-0.78-0.49-1.32-1.2-1.32c-0.75,0-1.32,0.54-1.32,1.22l-0.01-0.04v3.78
			h-1.79v-6.32h1.79v0.79c0.38-0.57,1.09-0.94,1.91-0.94C-124.72-114-123.74-112.98-123.74-111.55z"/>
		<path class="st3" d="M-122.59-110.7c0-1.8,1.58-3.3,3.46-3.3c1.87,0,3.43,1.5,3.43,3.3c0,1.8-1.56,3.31-3.43,3.31
			C-121.02-107.39-122.59-108.9-122.59-110.7z M-117.4-110.7c0-0.98-0.79-1.8-1.74-1.8c-0.95,0-1.75,0.82-1.75,1.8
			c0,0.98,0.79,1.81,1.75,1.81C-118.19-108.89-117.4-109.72-117.4-110.7z"/>
		<path class="st3" d="M-114.97-108.34l0.77-1.23c0.56,0.4,1.27,0.71,2.12,0.71c0.48,0,0.82-0.2,0.82-0.48
			c0-0.39-0.46-0.51-1.11-0.68c-1.29-0.32-2.3-0.67-2.31-1.92c-0.01-1.2,0.98-2.05,2.47-2.05c0.9,0,1.8,0.32,2.49,0.78l-0.72,1.27
			c-0.58-0.35-1.23-0.56-1.77-0.56c-0.44,0-0.75,0.16-0.75,0.38c0,0.34,0.26,0.44,1.11,0.67c1.09,0.28,2.3,0.65,2.3,2.03
			c0,1.25-1.01,2.04-2.57,2.04C-113.13-107.39-114.21-107.73-114.97-108.34z"/>
	</g>
</g>
<polygon class="st4" points="-86.87,-118.9 -88.02,-117.75 -81.91,-111.64 -102.45,-111.64 -102.45,-110.01 -81.99,-110.01 
	-88.1,-103.9 -86.95,-102.74 -78.83,-110.87 "/>
<g>
	<rect x="1.65" y="1.65" class="st5" width="605.23" height="246.92"/>
	<linearGradient id="SVGID_1_" gradientUnits="userSpaceOnUse" x1="21.8926" y1="288.134" x2="586.6332" y2="-37.9192">
		<stop  offset="0" style="stop-color:#FFEC00"/>
		<stop  offset="0.1009" style="stop-color:#FFE808"/>
		<stop  offset="0.2537" style="stop-color:#FFDD1C"/>
		<stop  offset="0.4393" style="stop-color:#FFCB3F"/>
		<stop  offset="0.6508" style="stop-color:#FFB26E"/>
		<stop  offset="0.881" style="stop-color:#FF92AA"/>
		<stop  offset="1" style="stop-color:#FF80CC"/>
	</linearGradient>
	<path class="st6" d="M608.53,250.21H0V0h608.53V250.21z M3.3,246.92h601.93V3.3H3.3V246.92z"/>
</g>
</svg>
