<?xml version="1.0" encoding="utf-8"?>
<!-- Generator: Adobe Illustrator 24.1.1, SVG Export Plug-In . SVG Version: 6.00 Build 0)  -->
<svg version="1.1" id="Capa_1" xmlns="http://www.w3.org/2000/svg" xmlns:xlink="http://www.w3.org/1999/xlink" x="0px" y="0px"
	 viewBox="0 0 85.5 15.93" style="enable-background:new 0 0 85.5 15.93;" xml:space="preserve">
<style type="text/css">
	.st0{fill:#FFEC00;}
	.st1{fill:#3ECAED;}
	.st2{fill:#FF80CC;}
	.st3{fill:#1D1D1B;}
	.st4{fill:#47AAF4;}
</style>
<g>
	<g>
		<path class="st3" d="M0.28,10.1l1.04-1.23c0.79,0.68,1.7,1.1,2.76,1.1c0.9,0,1.37-0.42,1.37-0.94c0-0.6-0.49-0.78-1.77-1.08
			c-1.77-0.4-3.03-0.9-3.03-2.53c0-1.55,1.27-2.62,3.1-2.62c1.37,0,2.43,0.43,3.29,1.16L6.1,5.26c-0.75-0.6-1.59-0.93-2.4-0.93
			c-0.77,0-1.23,0.4-1.23,0.9c0,0.61,0.5,0.81,1.8,1.1c1.81,0.4,3.01,0.94,3.01,2.49c0,1.6-1.21,2.66-3.26,2.66
			C2.55,11.5,1.26,11.01,0.28,10.1z"/>
		<path class="st3" d="M8.51,5.03h1.79v6.32H8.51V5.03z M10.2,2.42l1.6,0.29L9.99,4.32H8.78L10.2,2.42z"/>
		<path class="st3" d="M18.21,5.03v5.65c0,1.63-1.41,2.77-3.4,2.77c-1.11,0-2.16-0.35-2.79-0.84l0.62-1.26
			c0.42,0.37,1.15,0.6,1.88,0.6c1.15,0,1.88-0.53,1.88-1.34v-0.7c-0.5,0.61-1.26,0.98-2.09,0.98c-1.59,0-2.8-1.25-2.8-3.01
			c0-1.76,1.21-3,2.8-3c0.86,0,1.66,0.4,2.09,1V5.03H18.21z M16.42,7.88c0-0.88-0.64-1.49-1.53-1.49C14,6.39,13.36,7,13.36,7.88
			c0,0.88,0.64,1.5,1.53,1.5C15.78,9.38,16.42,8.76,16.42,7.88z"/>
		<path class="st3" d="M25.75,5.03v6.32h-1.78v-0.79c-0.38,0.58-1.09,0.94-1.91,0.94c-1.37,0-2.35-1.01-2.35-2.44V5.03h1.72v3.64
			c0,0.78,0.49,1.32,1.2,1.32c0.75,0,1.32-0.54,1.32-1.22l0.01,0.04V5.03H25.75z"/>
		<path class="st3" d="M31.72,9.36l1.14,1.16c-0.56,0.59-1.65,0.98-2.58,0.98c-1.88,0-3.35-1.38-3.35-3.32
			c0-1.91,1.41-3.29,3.25-3.29c1.98,0,3.14,1.5,3.14,3.89h-4.56c0.21,0.68,0.76,1.15,1.5,1.15C30.77,9.92,31.38,9.69,31.72,9.36z
			 M28.79,7.49h2.82c-0.17-0.62-0.64-1.03-1.36-1.03C29.58,6.46,29.02,6.85,28.79,7.49z"/>
		<path class="st3" d="M40.53,7.33v4.02h-1.72V7.71c0-0.78-0.49-1.32-1.2-1.32c-0.75,0-1.32,0.54-1.32,1.22l-0.01-0.04v3.78H34.5
			V5.03h1.79v0.79c0.38-0.57,1.09-0.94,1.91-0.94C39.56,4.88,40.53,5.9,40.53,7.33z"/>
		<path class="st3" d="M41.68,8.18c0-1.8,1.58-3.3,3.46-3.3c1.87,0,3.43,1.5,3.43,3.3c0,1.8-1.56,3.31-3.43,3.31
			C43.26,11.5,41.68,9.98,41.68,8.18z M46.88,8.18c0-0.98-0.79-1.8-1.74-1.8c-0.95,0-1.75,0.82-1.75,1.8c0,0.98,0.79,1.81,1.75,1.81
			C46.08,9.99,46.88,9.16,46.88,8.18z"/>
		<path class="st3" d="M49.31,10.54l0.77-1.23c0.56,0.4,1.27,0.71,2.12,0.71c0.48,0,0.82-0.2,0.82-0.48c0-0.39-0.46-0.51-1.11-0.68
			c-1.29-0.32-2.3-0.67-2.31-1.92c-0.01-1.2,0.98-2.05,2.47-2.05c0.9,0,1.8,0.32,2.49,0.78l-0.72,1.27
			c-0.58-0.35-1.23-0.56-1.77-0.56c-0.44,0-0.75,0.16-0.75,0.38c0,0.34,0.26,0.44,1.11,0.67c1.09,0.28,2.3,0.65,2.3,2.03
			c0,1.25-1.01,2.04-2.57,2.04C51.15,11.5,50.07,11.16,49.31,10.54z"/>
	</g>
</g>
<polygon class="st4" points="77.41,-0.02 76.26,1.13 82.37,7.25 61.83,7.25 61.83,8.88 82.29,8.88 76.17,14.99 77.33,16.14 
	85.45,8.02 "/>
</svg>
