<?xml version="1.0" encoding="utf-8"?>
<!-- Generator: Adobe Illustrator 24.1.1, SVG Export Plug-In . SVG Version: 6.00 Build 0)  -->
<svg version="1.1" id="Capa_1" xmlns="http://www.w3.org/2000/svg" xmlns:xlink="http://www.w3.org/1999/xlink" x="0px" y="0px"
	 viewBox="0 0 177.93 37.85" style="enable-background:new 0 0 177.93 37.85;" xml:space="preserve">
<style type="text/css">
	.st0{fill:#FFEC00;}
	.st1{fill:#3ECAED;}
	.st2{fill:#FF80CC;}
	.st3{fill:#1D1D1B;}
	.st4{fill:#47AAF4;}
</style>
<rect x="-0.5" class="st2" width="161.77" height="37.85"/>
<g>
	<path d="M24.93,13.93l-4.2,10.3h-2.47l-4.2-10.3h2.49l2.95,7.26l2.96-7.26H24.93z"/>
	<path d="M30.88,21.79l1.4,1.43c-0.69,0.72-2.02,1.2-3.17,1.2c-2.31,0-4.11-1.69-4.11-4.08c0-2.34,1.73-4.04,3.99-4.04
		c2.43,0,3.85,1.84,3.85,4.77h-5.59c0.25,0.84,0.93,1.41,1.84,1.41C29.71,22.48,30.46,22.19,30.88,21.79z M27.28,19.49h3.46
		c-0.21-0.76-0.78-1.26-1.66-1.26C28.25,18.23,27.56,18.71,27.28,19.49z"/>
	<path d="M39.35,16.3v1.84c-1.62,0-2.65,0.93-2.65,2.38v3.71H34.5v-7.75h2.19v1.44C37.2,16.91,38.16,16.3,39.35,16.3z"/>
	<path d="M50.54,21.79l1.4,1.43c-0.69,0.72-2.02,1.2-3.17,1.2c-2.31,0-4.11-1.69-4.11-4.08c0-2.34,1.73-4.04,3.99-4.04
		c2.43,0,3.85,1.84,3.85,4.77h-5.59c0.25,0.84,0.93,1.41,1.84,1.41C49.37,22.48,50.12,22.19,50.54,21.79z M46.94,19.49h3.46
		c-0.21-0.76-0.78-1.26-1.66-1.26C47.91,18.23,47.22,18.71,46.94,19.49z"/>
	<path d="M54.16,13.75h2.19v10.48h-2.19V13.75z"/>
	<path d="M71.09,20.35c0,2.38-1.5,4.06-3.57,4.06c-1.08,0-1.98-0.46-2.59-1.27v3.67h-2.19V16.48h2.19v1.08
		c0.61-0.79,1.52-1.26,2.59-1.26C69.59,16.3,71.09,17.98,71.09,20.35z M68.96,20.35c0-1.29-0.85-2.21-2.07-2.21
		c-1.06,0-1.84,0.78-1.96,1.91v0.6c0.12,1.14,0.9,1.92,1.96,1.92C68.11,22.57,68.96,21.65,68.96,20.35z"/>
	<path d="M72.38,20.35c0-2.21,1.94-4.05,4.25-4.05c2.29,0,4.21,1.84,4.21,4.05s-1.92,4.06-4.21,4.06
		C74.32,24.41,72.38,22.55,72.38,20.35z M78.76,20.35c0-1.2-0.98-2.21-2.13-2.21c-1.17,0-2.15,1-2.15,2.21s0.98,2.22,2.15,2.22
		C77.78,22.57,78.76,21.55,78.76,20.35z"/>
	<path d="M87.35,16.3v1.84c-1.62,0-2.65,0.93-2.65,2.38v3.71h-2.19v-7.75h2.19v1.44C85.21,16.91,86.17,16.3,87.35,16.3z"/>
	<path d="M93.52,23.74c-0.45,0.41-1.16,0.67-1.79,0.67c-1.36,0-2.32-0.97-2.32-2.37v-3.79h-1.06v-1.77h1.06v-2.13h2.1v2.13h1.68
		v1.77h-1.68v3.45c0,0.51,0.33,0.87,0.74,0.87c0.3,0,0.6-0.1,0.75-0.25L93.52,23.74z"/>
	<path d="M101.78,19.6v4.63h-2.11v-0.78c-0.56,0.63-1.44,0.96-2.28,0.96c-1.65,0-2.93-0.99-2.93-2.47c0-1.53,1.43-2.58,3.23-2.58
		c0.63,0,1.32,0.13,1.98,0.39V19.6c0-0.83-0.51-1.54-1.79-1.54c-0.72,0-1.4,0.24-2.01,0.55l-0.73-1.46
		c1.09-0.55,2.16-0.85,3.24-0.85C100.4,16.3,101.78,17.57,101.78,19.6z M99.66,21.79v-0.72c-0.5-0.18-1.06-0.29-1.67-0.29
		c-0.79,0-1.42,0.46-1.42,1.1c0,0.63,0.55,1.02,1.3,1.02C98.72,22.9,99.51,22.51,99.66,21.79z"/>
	<path d="M106.31,16.48h1.68v1.77h-1.68v5.98h-2.1v-5.98h-1.06v-1.77h1.06V15.8c0-1.39,0.96-2.37,2.32-2.37
		c0.63,0,1.33,0.27,1.79,0.67l-0.53,1.33c-0.15-0.15-0.45-0.25-0.75-0.25c-0.41,0-0.74,0.36-0.74,0.87V16.48z"/>
	<path d="M108.86,20.35c0-2.21,1.94-4.05,4.25-4.05c2.29,0,4.21,1.84,4.21,4.05s-1.92,4.06-4.21,4.06
		C110.79,24.41,108.86,22.55,108.86,20.35z M115.23,20.35c0-1.2-0.98-2.21-2.13-2.21c-1.17,0-2.15,1-2.15,2.21s0.97,2.22,2.15,2.22
		C114.26,22.57,115.23,21.55,115.23,20.35z"/>
	<path d="M118.98,13.75h2.19v10.48h-2.19V13.75z"/>
	<path d="M123.17,14.21c0-0.62,0.52-1.17,1.2-1.17c0.65,0,1.17,0.55,1.17,1.17c0,0.66-0.53,1.2-1.17,1.2
		C123.7,15.41,123.17,14.87,123.17,14.21z M123.26,16.48h2.19v7.75h-2.19V16.48z"/>
	<path d="M127.05,20.35c0-2.21,1.94-4.05,4.25-4.05c2.29,0,4.21,1.84,4.21,4.05s-1.92,4.06-4.21,4.06
		C128.98,24.41,127.05,22.55,127.05,20.35z M133.42,20.35c0-1.2-0.98-2.21-2.13-2.21c-1.17,0-2.15,1-2.15,2.21s0.98,2.22,2.15,2.22
		C132.45,22.57,133.42,21.55,133.42,20.35z"/>
</g>
<polygon points="167.12,9.88 165.57,11.43 173.8,19.65 146.16,19.65 146.16,21.84 173.68,21.84 165.46,30.06 167.01,31.61 
	177.93,20.69 "/>
</svg>
