<?xml version="1.0" encoding="utf-8"?>
<!-- Generator: Adobe Illustrator 24.1.1, SVG Export Plug-In . SVG Version: 6.00 Build 0)  -->
<svg version="1.1" id="Capa_1" xmlns="http://www.w3.org/2000/svg" xmlns:xlink="http://www.w3.org/1999/xlink" x="0px" y="0px"
	 viewBox="0 0 190.45 37.85" style="enable-background:new 0 0 190.45 37.85;" xml:space="preserve">
<style type="text/css">
	.st0{fill:#FFEC00;}
	.st1{fill:#3ECAED;}
	.st2{fill:#FF80CC;}
	.st3{fill:#1D1D1B;}
	.st4{fill:#47AAF4;}
</style>
<rect x="0" class="st2" width="175.06" height="37.85"/>
<g>
	<path d="M16.78,17.7c0,0.71-0.62,1.33-1.39,1.33c-0.74,0-1.33-0.63-1.33-1.33c0-0.76,0.6-1.39,1.33-1.39
		C16.16,16.31,16.78,16.94,16.78,17.7z M16.61,26.79h-2.47l0.5-6.67h1.48L16.61,26.79z"/>
	<path d="M28.41,22.1l0.96,0.84l-1.13,1.3l-1.05-0.92c-0.92,0.69-2.06,1.09-3.29,1.09c-2.96,0-5.47-2.44-5.47-5.34
		c0-2.89,2.52-5.32,5.47-5.32c2.98,0,5.47,2.43,5.47,5.32C29.39,20.19,29.03,21.23,28.41,22.1z M25.56,21.92l-1.2-1.05l1.13-1.3
		l1.24,1.08c0.26-0.46,0.39-1,0.39-1.56c0-1.78-1.47-3.31-3.21-3.31c-1.72,0-3.2,1.53-3.2,3.31c0,1.8,1.47,3.33,3.2,3.33
		C24.51,22.41,25.08,22.23,25.56,21.92z"/>
	<path d="M38.68,16.49v7.75h-2.19v-0.97c-0.46,0.71-1.33,1.15-2.34,1.15c-1.68,0-2.88-1.25-2.88-3v-4.93h2.12v4.47
		c0,0.96,0.6,1.62,1.47,1.62c0.92,0,1.62-0.66,1.62-1.5l0.01,0.04v-4.63H38.68z"/>
	<path d="M40.69,14.22c0-0.62,0.53-1.17,1.2-1.17c0.65,0,1.17,0.55,1.17,1.17c0,0.66-0.52,1.2-1.17,1.2
		C41.22,15.42,40.69,14.88,40.69,14.22z M40.78,16.49h2.19v7.75h-2.19V16.49z"/>
	<path d="M50.48,21.8l1.4,1.43c-0.69,0.72-2.03,1.2-3.17,1.2c-2.31,0-4.11-1.69-4.11-4.08c0-2.34,1.72-4.04,3.99-4.04
		c2.43,0,3.86,1.84,3.86,4.77h-5.6c0.26,0.84,0.93,1.41,1.85,1.41C49.31,22.49,50.06,22.2,50.48,21.8z M46.88,19.5h3.46
		c-0.21-0.76-0.78-1.26-1.67-1.26C47.85,18.24,47.16,18.72,46.88,19.5z"/>
	<path d="M58.95,16.31v1.84c-1.62,0-2.66,0.93-2.66,2.38v3.71H54.1v-7.75h2.19v1.44C56.8,16.92,57.76,16.31,58.95,16.31z"/>
	<path d="M59.74,20.36c0-2.21,1.93-4.05,4.24-4.05c2.29,0,4.21,1.84,4.21,4.05s-1.92,4.06-4.21,4.06
		C61.68,24.42,59.74,22.56,59.74,20.36z M66.12,20.36c0-1.2-0.97-2.21-2.13-2.21c-1.17,0-2.14,1-2.14,2.21s0.97,2.22,2.14,2.22
		C65.14,22.58,66.12,21.56,66.12,20.36z"/>
	<path d="M73.59,23.25l0.95-1.51c0.69,0.5,1.56,0.87,2.59,0.87c0.58,0,1-0.24,1-0.58c0-0.48-0.57-0.63-1.37-0.84
		c-1.59-0.39-2.82-0.83-2.83-2.36c-0.01-1.47,1.2-2.52,3.03-2.52c1.11,0,2.21,0.39,3.06,0.96l-0.88,1.56
		c-0.71-0.43-1.51-0.69-2.17-0.69c-0.54,0-0.92,0.19-0.92,0.46c0,0.42,0.31,0.54,1.37,0.83c1.33,0.34,2.82,0.79,2.82,2.49
		c0,1.53-1.25,2.5-3.15,2.5C75.84,24.42,74.52,24,73.59,23.25z"/>
	<path d="M88.72,19.61v4.63H86.6v-0.78c-0.55,0.63-1.44,0.96-2.28,0.96c-1.65,0-2.92-0.99-2.92-2.47c0-1.53,1.42-2.58,3.22-2.58
		c0.63,0,1.32,0.13,1.98,0.39v-0.15c0-0.83-0.51-1.54-1.79-1.54c-0.72,0-1.39,0.24-2.01,0.55l-0.74-1.46
		c1.1-0.55,2.16-0.85,3.24-0.85C87.34,16.31,88.72,17.58,88.72,19.61z M86.6,21.8v-0.72c-0.5-0.18-1.07-0.29-1.67-0.29
		c-0.79,0-1.42,0.46-1.42,1.1c0,0.63,0.55,1.02,1.3,1.02C85.66,22.91,86.45,22.52,86.6,21.8z"/>
	<path d="M99.14,20.36c0,2.38-1.5,4.06-3.57,4.06c-1.08,0-1.98-0.46-2.6-1.27v1.09h-2.19V13.76h2.19v3.81
		c0.62-0.79,1.52-1.26,2.6-1.26C97.64,16.31,99.14,17.99,99.14,20.36z M97.01,20.36c0-1.29-0.85-2.21-2.07-2.21
		c-1.07,0-1.85,0.78-1.97,1.91v0.6c0.12,1.14,0.9,1.92,1.97,1.92C96.15,22.58,97.01,21.66,97.01,20.36z"/>
	<path d="M106.31,21.8l1.4,1.43c-0.69,0.72-2.03,1.2-3.17,1.2c-2.31,0-4.11-1.69-4.11-4.08c0-2.34,1.72-4.04,3.99-4.04
		c2.43,0,3.86,1.84,3.86,4.77h-5.6c0.26,0.84,0.93,1.41,1.85,1.41C105.14,22.49,105.89,22.2,106.31,21.8z M102.71,19.5h3.46
		c-0.21-0.76-0.78-1.26-1.67-1.26C103.68,18.24,102.99,18.72,102.71,19.5z"/>
	<path d="M114.78,16.31v1.84c-1.62,0-2.66,0.93-2.66,2.38v3.71h-2.19v-7.75h2.19v1.44C112.63,16.92,113.59,16.31,114.78,16.31z"/>
	<path d="M132.61,19.31v4.95h-2.1v-4.57c0-0.9-0.57-1.53-1.38-1.53c-0.87,0-1.5,0.58-1.5,1.41v4.69h-2.1v-4.57
		c0-0.9-0.57-1.53-1.37-1.53c-0.88,0-1.5,0.58-1.5,1.41v4.68h-2.19v-7.75h2.19v1.02c0.38-0.74,1.14-1.2,2.1-1.2
		c1.06,0,1.98,0.54,2.46,1.41c0.4-0.86,1.36-1.41,2.52-1.41C131.37,16.31,132.61,17.55,132.61,19.31z"/>
	<path d="M141.48,19.61v4.63h-2.12v-0.78c-0.55,0.63-1.44,0.96-2.28,0.96c-1.65,0-2.92-0.99-2.92-2.47c0-1.53,1.42-2.58,3.22-2.58
		c0.63,0,1.32,0.13,1.98,0.39v-0.15c0-0.83-0.51-1.54-1.79-1.54c-0.72,0-1.39,0.24-2.01,0.55l-0.74-1.46
		c1.1-0.55,2.16-0.85,3.24-0.85C140.1,16.31,141.48,17.58,141.48,19.61z M139.36,21.8v-0.72c-0.5-0.18-1.07-0.29-1.67-0.29
		c-0.79,0-1.42,0.46-1.42,1.1c0,0.63,0.55,1.02,1.3,1.02C138.42,22.91,139.21,22.52,139.36,21.8z M138.09,15.62h-1.48l1.74-2.34
		l1.97,0.36L138.09,15.62z"/>
	<path d="M142.91,23.25l0.95-1.51c0.69,0.5,1.56,0.87,2.59,0.87c0.58,0,1-0.24,1-0.58c0-0.48-0.57-0.63-1.37-0.84
		c-1.59-0.39-2.82-0.83-2.83-2.36c-0.01-1.47,1.2-2.52,3.03-2.52c1.11,0,2.21,0.39,3.06,0.96l-0.88,1.56
		c-0.71-0.43-1.51-0.69-2.17-0.69c-0.54,0-0.92,0.19-0.92,0.46c0,0.42,0.31,0.54,1.37,0.83c1.33,0.34,2.82,0.79,2.82,2.49
		c0,1.53-1.25,2.5-3.15,2.5C145.16,24.42,143.83,24,142.91,23.25z"/>
	<path d="M151.09,23.03c0-0.71,0.62-1.33,1.4-1.33c0.73,0,1.33,0.63,1.33,1.33c0,0.76-0.6,1.39-1.33,1.39
		C151.7,24.42,151.09,23.79,151.09,23.03z M151.25,13.94h2.48l-0.5,6.67h-1.49L151.25,13.94z"/>
</g>
<polygon points="180.39,9.01 178.98,10.43 186.48,17.93 161.27,17.93 161.27,19.93 186.37,19.93 178.87,27.43 180.29,28.84 
	190.25,18.87 "/>
</svg>
